<?xml version="1.0" encoding="utf-8"?>
<!-- Generator: Adobe Illustrator 21.0.2, SVG Export Plug-In . SVG Version: 6.00 Build 0)  -->
<svg version="1.1" id="Слой_1" xmlns="http://www.w3.org/2000/svg" xmlns:xlink="http://www.w3.org/1999/xlink" x="0px" y="0px"
	 viewBox="0 0 128 128" style="enable-background:new 0 0 128 128;" xml:space="preserve">
<style type="text/css">
	.st0{clip-path:url(#SVGID_2_);fill:#DEA004;}
	.st1{clip-path:url(#SVGID_2_);fill:#F8DC4A;}
	.st2{opacity:0.28;clip-path:url(#SVGID_2_);}
	.st3{clip-path:url(#SVGID_4_);fill:#FFFFFF;}
	
		.st4{clip-path:url(#SVGID_2_);fill:none;stroke:#F2C341;stroke-width:1.929;stroke-linecap:round;stroke-linejoin:round;stroke-dasharray:1.971,5.913;}
	.st5{clip-path:url(#SVGID_2_);fill:#C99204;}
	.st6{opacity:0.16;clip-path:url(#SVGID_2_);}
	.st7{clip-path:url(#SVGID_6_);fill:#FFFFFF;}
	.st8{clip-path:url(#SVGID_2_);fill:#FFFFFF;}
	.st9{clip-path:url(#SVGID_2_);fill:#C6A310;}
	.st10{fill:none;}
</style>
<g>
	<defs>
		<rect id="SVGID_1_" x="4.8" y="4.1" width="119.2" height="119.9"/>
	</defs>
	<clipPath id="SVGID_2_">
		<use xlink:href="#SVGID_1_"  style="overflow:visible;"/>
	</clipPath>
	<path class="st0" d="M124,63.5c0,32.8-26.6,59.4-59.4,59.4S5.1,96.3,5.1,63.5S31.7,4.1,64.6,4.1S124,30.7,124,63.5"/>
	<path class="st1" d="M121.9,65.5c0,32.3-26.2,58.5-58.5,58.5C31,124,4.8,97.8,4.8,65.5S31,6.9,63.4,6.9
		C95.7,6.9,121.9,33.1,121.9,65.5"/>
	<g class="st2">
		<g>
			<defs>
				<rect id="SVGID_3_" x="8" y="11.7" width="110.5" height="107.2"/>
			</defs>
			<clipPath id="SVGID_4_">
				<use xlink:href="#SVGID_3_"  style="overflow:visible;"/>
			</clipPath>
			<path class="st3" d="M103.8,23.1l-85.7,79.4c1.2,1.5,2.6,3,3.9,4.3l85.8-79.5C106.6,25.9,105.2,24.5,103.8,23.1"/>
			<path class="st3" d="M118.5,45.7c-1.6-4.6-3.8-8.9-6.5-12.9l-84.9,78.6c3.8,3,7.9,5.5,12.3,7.5L118.5,45.7z"/>
			<path class="st3" d="M8,84.5c1.7,4.9,4,9.6,6.9,13.8l84.9-78.6c-4-3.2-8.4-5.9-13.2-7.9L8,84.5z"/>
		</g>
	</g>
	<circle class="st4" cx="63.4" cy="65" r="53.7"/>
	<path class="st5" d="M112.4,65.5c0,27.1-21.9,49-49,49c-27.1,0-49-21.9-49-49c0-27.1,21.9-49,49-49
		C90.4,16.4,112.4,38.4,112.4,65.5"/>
	<path class="st0" d="M110.2,65.5c0,25.9-21,46.9-46.9,46.9s-46.9-21-46.9-46.9s21-46.9,46.9-46.9S110.2,39.6,110.2,65.5"/>
	<g class="st6">
		<g>
			<defs>
				<rect id="SVGID_5_" x="17.6" y="20.6" width="91.3" height="89.4"/>
			</defs>
			<clipPath id="SVGID_6_">
				<use xlink:href="#SVGID_5_"  style="overflow:visible;"/>
			</clipPath>
			<path class="st7" d="M17.6,75.6c1.2,5.3,3.2,10.2,6,14.6l67.5-62.5c-4.2-3.1-9-5.5-14.1-7.1L17.6,75.6z"/>
			<path class="st7" d="M95.2,31.1L26.7,94.6c1.2,1.5,2.5,3,3.9,4.4l68.7-63.6C98,33.8,96.6,32.4,95.2,31.1"/>
			<path class="st7" d="M108.9,54.5c-1.2-4.9-3.1-9.5-5.7-13.7l-67.4,62.5c4,2.9,8.4,5.2,13.2,6.7L108.9,54.5z"/>
		</g>
	</g>
	<path class="st8" d="M97.2,8.3C96.3,21,94.4,22.8,82.3,23.8c12.1,1,14,2.7,14.9,15.5c0.9-12.7,2.8-14.5,14.9-15.5
		C100,22.8,98.1,21,97.2,8.3"/>
	<path class="st9" d="M36,75.6v-0.8c0-0.1,0.1-0.2,0.1-0.3c0.1-0.7,0.1-1.5,0.2-2.2c0.6-3.5,3.6-6.6,7.2-6.9
		c1.9-0.2,3.8-0.2,5.7-0.3c1.1-0.1,2.3-0.1,3.4-0.2c0.3,0,0.7-0.1,0.9-0.5c-0.2,0-0.3-0.1-0.5-0.1c-1.1-0.1-2.2-0.2-3.3-0.4
		c-2-0.2-4.1-0.5-6.1-0.8c-1.9-0.3-3.7-1.1-5.2-2.2c-1.1-0.8-2.1-1.8-2.3-3.3c0-0.2-0.1-0.4-0.1-0.6v-1.5c0-0.1,0.1-0.2,0.1-0.4
		c0.2-1.1,0.5-2.1,1.2-2.9c1.2-1.6,2.8-2.8,4.3-4c0.1-0.1,0.2-0.1,0.3-0.2c0.9-1.2,1.8-2.4,2.7-3.6c1-1.3,2.1-2.4,3.5-3.2
		c1.3-0.8,2.8-1.3,4.4-1.1c3.6,0.5,6.3,3.1,6.9,6.6c0.4,2.3,0.6,4.7,0.9,7c0.1,0.9,0.2,1.9,0.4,2.8c0,0,0.1,0,0.1,0
		c0-0.1,0.1-0.3,0.1-0.4c0.2-2.7,0.4-5.5,0.7-8.2c0.1-0.8,0.1-1.7,0.4-2.3c1.2-2.5,3-4.4,5.5-5.6c0.7-0.4,1.6-0.5,2.4-0.8h1.6
		c0,0,0.1,0.1,0.1,0.1c1.4,0.2,2.6,0.8,3.6,1.7c1,0.8,1.7,1.8,2.4,2.9c0.7,1.1,1.6,2.1,2.8,2.8c0.6,0.4,1.3,0.8,1.9,1.2
		c2,1.4,3.2,3.3,2.9,5.8c0,0.4-0.1,0.8-0.2,1.3c-0.3,2.2-1.2,4.2-3.1,5.5c-0.2,0.2-0.4,0.3-0.7,0.5c-2,1.4-4.1,2.4-6.5,2.7
		c-1.9,0.2-3.8,0.4-5.7,0.7c-0.4,0.1-0.9,0.1-1.3,0.2l0,0.2c0.5,0,0.9,0,1.4,0c2,0,4.1-0.1,6.1,0c1.5,0,3.1,0.1,4.6,0.4
		c1.9,0.3,3.6,1.1,4.8,2.7c0.7,0.9,1.3,1.9,1.6,3.1v1.8c0,0.1-0.1,0.3-0.1,0.4c-0.1,0.8-0.2,1.7-0.4,2.5c-0.1,0.8-0.7,1.5-1,2.2
		c-0.1,0.3-0.3,0.4-0.6,0.6c-0.5,0.3-1,0.7-1.4,1.1c-1.1,1.2-1.9,2.6-2.6,4.1c-0.7,1.5-1.8,2.7-3,3.6c-2.6,2-5.6,1.1-7.3-0.1
		c-1.3-0.9-2.4-2-3.4-3.2c-0.9-1.2-1.9-2.4-2.2-4c-0.1-0.4-0.2-0.8-0.3-1.2c-0.4-1.4-0.7-2.8-1.1-4.1c0,0-0.1,0-0.1,0
		c0,0.2-0.1,0.5-0.1,0.7c0,1.3,0,2.5,0,3.8c0.1,1.7,0.2,3.4,0.7,5c0.5,1.9,1.2,3.8,2.7,5.3c0.4,0.4,0.8,0.7,1.1,1.1
		c0.4,0.5,0.7,1,0.6,1.7c-0.1,0.4-0.2,0.8-0.3,1.2h-0.4c-0.1,0-0.2-0.1-0.3-0.1c-1.5-0.2-2.7-1-3.7-2.1c-2.4-2.5-3.4-5.6-3.6-8.9
		c-0.1-2.1,0-4.2,0.1-6.3c0-0.9,0.1-1.9,0.1-2.8c-0.5,0-0.8,0.2-0.9,0.6c-0.1,0.3-0.2,0.6-0.2,0.9c-0.4,2.1-0.7,4.2-1.1,6.3
		c-0.3,1.4-0.5,2.7-1.3,4c-1.1,1.8-2.7,3-4.7,3.5c-1,0.3-2,0.1-3,0c-1.9-0.2-3.6-0.8-4.8-2.4c-1.1-1.4-2.2-2.8-2.9-4.4
		c-0.2-0.4-0.5-0.7-0.8-1c-0.7-0.6-1.4-1.3-2-2C37.2,77.7,36.4,76.8,36,75.6"/>
	<path class="st1" d="M39.3,74.3v-0.8c0-0.1,0.1-0.2,0.1-0.3c0.1-0.7,0.1-1.5,0.2-2.2c0.6-3.5,3.6-6.6,7.2-6.9
		c1.9-0.2,3.8-0.2,5.7-0.3c1.1-0.1,2.3-0.1,3.4-0.2c0.3,0,0.7-0.1,0.9-0.5c-0.2,0-0.3-0.1-0.5-0.1c-1.1-0.1-2.2-0.2-3.3-0.4
		c-2-0.2-4.1-0.5-6.1-0.8c-1.9-0.3-3.7-1.1-5.2-2.2c-1.1-0.8-2.1-1.8-2.3-3.3c0-0.2-0.1-0.4-0.1-0.6v-1.5c0-0.1,0.1-0.2,0.1-0.4
		c0.2-1.1,0.5-2.1,1.2-2.9c1.2-1.6,2.8-2.8,4.3-4c0.1-0.1,0.2-0.1,0.3-0.2c0.9-1.2,1.8-2.4,2.7-3.6c1-1.3,2.1-2.4,3.5-3.2
		c1.3-0.8,2.8-1.3,4.4-1.1c3.6,0.5,6.3,3.1,6.9,6.6c0.4,2.3,0.6,4.7,0.9,7c0.1,0.9,0.2,1.9,0.4,2.8h0.1c0-0.1,0.1-0.3,0.1-0.4
		c0.2-2.7,0.4-5.5,0.7-8.2c0.1-0.8,0.1-1.7,0.4-2.3c1.2-2.5,3-4.4,5.5-5.6c0.7-0.4,1.6-0.5,2.4-0.8h1.6c0,0,0.1,0.1,0.1,0.1
		c1.4,0.2,2.6,0.8,3.6,1.7c1,0.8,1.7,1.8,2.4,2.9c0.7,1.1,1.6,2.1,2.8,2.8c0.6,0.4,1.3,0.8,1.9,1.2c2,1.4,3.2,3.3,2.9,5.8
		c0,0.4-0.1,0.8-0.2,1.3c-0.3,2.2-1.2,4.2-3.1,5.5c-0.2,0.2-0.4,0.3-0.7,0.5c-2,1.4-4.1,2.4-6.5,2.7c-1.9,0.2-3.8,0.4-5.7,0.7
		c-0.4,0.1-0.9,0.1-1.3,0.2c0,0.1,0,0.1,0,0.2c0.5,0,0.9,0,1.4,0c2,0,4.1-0.1,6.1,0c1.5,0,3.1,0.1,4.6,0.4c1.9,0.3,3.6,1.1,4.8,2.7
		c0.7,0.9,1.3,1.9,1.6,3.1v1.8c0,0.1-0.1,0.3-0.1,0.4c-0.1,0.8-0.2,1.7-0.4,2.5c-0.1,0.8-0.7,1.5-1,2.2c-0.1,0.3-0.3,0.4-0.6,0.6
		c-0.5,0.3-1,0.7-1.4,1.1c-1.1,1.2-1.9,2.6-2.6,4.1c-0.7,1.5-1.8,2.7-3,3.6c-2.6,2-5.6,1.1-7.3-0.1c-1.3-0.9-2.4-2-3.4-3.2
		c-0.9-1.2-1.9-2.4-2.2-4c-0.1-0.4-0.2-0.8-0.3-1.2c-0.4-1.4-0.7-2.8-1.1-4.1c0,0-0.1,0-0.1,0c0,0.2-0.1,0.5-0.1,0.7
		c0,1.3,0,2.5,0,3.8c0.1,1.7,0.2,3.4,0.7,5c0.5,1.9,1.2,3.8,2.7,5.3c0.4,0.4,0.8,0.7,1.1,1.1c0.4,0.5,0.7,1,0.6,1.7
		c-0.1,0.4-0.2,0.8-0.3,1.2h-0.4c-0.1,0-0.2-0.1-0.3-0.1c-1.5-0.2-2.7-1-3.7-2.1c-2.4-2.5-3.4-5.6-3.6-8.9c-0.1-2.1,0-4.2,0.1-6.3
		c0-0.9,0.1-1.9,0.1-2.8c-0.5,0-0.8,0.2-0.9,0.6c-0.1,0.3-0.2,0.6-0.2,0.9c-0.4,2.1-0.7,4.2-1.1,6.3c-0.3,1.4-0.5,2.7-1.3,4
		c-1.1,1.8-2.7,3-4.7,3.5c-1,0.3-2,0.1-3,0c-1.9-0.2-3.6-0.8-4.8-2.4c-1.1-1.4-2.2-2.8-2.9-4.4c-0.2-0.4-0.5-0.7-0.8-1
		c-0.7-0.6-1.4-1.3-2-2C40.5,76.4,39.6,75.5,39.3,74.3"/>
	<path class="st8" d="M49.5,76.9c-0.6,8-1.8,9-9.3,9.7c7.6,0.6,8.8,1.7,9.3,9.7c0.6-8,1.8-9,9.3-9.7C51.3,86,50.1,84.9,49.5,76.9"/>
</g>
<rect x="2.8" y="4.1" class="st10" width="119.2" height="119.9"/>
</svg>
