<?xml version="1.0" encoding="utf-8"?>
<!-- Generator: Adobe Illustrator 21.0.2, SVG Export Plug-In . SVG Version: 6.00 Build 0)  -->
<svg version="1.1" id="Слой_1" xmlns="http://www.w3.org/2000/svg" xmlns:xlink="http://www.w3.org/1999/xlink" x="0px" y="0px"
	 viewBox="0 0 250 50" style="enable-background:new 0 0 250 50;" xml:space="preserve">
<style type="text/css">
	.st0{fill:#FFFFFF;}
	.st1{fill:#E5D71A;}
</style>
<g>
	<path class="st0" d="M19.3,40.7c-8.8,0-15.2-5.9-15.2-14.6c0-8.9,6.6-14.6,15-14.6c4.3,0,8.4,1.4,10.7,3.7l-4.2,4.8
		c-1.3-1.5-3.5-2.6-6.2-2.6c-4.7,0-8.1,3.7-8.1,8.7c0,5.1,3,8.7,8.5,8.7c1.6,0,3-0.2,4.2-0.7v-5.1h-5.3v-5.4H30v14.7
		C27.3,39.8,23.6,40.7,19.3,40.7z"/>
	<path class="st0" d="M50.3,40l-6-11h-2.3v11h-6.6V12.3h10.6c5.3,0,10.6,2,10.6,8.4c0,3.7-2.2,6.4-5.8,7.5L58.2,40H50.3z M45.6,17.7
		H42v6.5h3.2c2.2,0,4.9-0.5,4.9-3.4C50.1,18.2,47.6,17.7,45.6,17.7z"/>
	<path class="st0" d="M61.5,40V12.3h18.6V18H67.9v5.2h11.5v5.4H67.9v5.8h12.9V40H61.5z"/>
	<path class="st0" d="M85.2,40V12.3h18.6V18H91.7v5.2h11.5v5.4H91.7v5.8h12.9V40H85.2z"/>
	<path class="st0" d="M119.3,40H109V12.3h10c7.9,0,15.9,3.3,15.9,13.8C134.9,35.8,127,40,119.3,40z M118.9,18h-3.3v16.2h3.2
		c4.8,0,9.2-2,9.2-8.1C127.9,19.9,123.5,18,118.9,18z"/>
	<path class="st0" d="M151.3,28.3V40h-6.7V28.3l-10.4-16h8.1l5.9,10.3l5.9-10.3h7.8L151.3,28.3z"/>
	<path class="st1" d="M178.9,40l-6-11h-2.3v11h-6.6V12.3h10.6c5.3,0,10.6,2,10.6,8.4c0,3.7-2.2,6.4-5.8,7.5l7.2,11.9H178.9z
		 M174.2,17.7h-3.6v6.5h3.2c2.2,0,4.9-0.5,4.9-3.4C178.6,18.2,176.2,17.7,174.2,17.7z"/>
	<path class="st1" d="M201.6,40.8c-7.3,0-11.8-4.5-11.8-11.2V12.3h6.7V29c0,3,1.4,5.7,5.2,5.7c3.8,0,5.2-2.7,5.2-5.7V12.3h6.7v17.3
		C213.5,36.2,208.8,40.8,201.6,40.8z"/>
	<path class="st1" d="M236.5,40l-11.2-18.1h-0.1l0.2,18.1h-6.5V12.3h7.6l11.1,18.1h0.1l-0.2-18.1h6.5V40H236.5z"/>
</g>
</svg>
