<?xml version="1.0" encoding="utf-8"?>
<!-- Generator: Adobe Illustrator 21.0.2, SVG Export Plug-In . SVG Version: 6.00 Build 0)  -->
<svg version="1.1" id="Слой_1" xmlns="http://www.w3.org/2000/svg" xmlns:xlink="http://www.w3.org/1999/xlink" x="0px" y="0px"
	 viewBox="0 0 205 220" style="enable-background:new 0 0 205 220;" xml:space="preserve">
<style type="text/css">
	.st0{opacity:0.19;}
	.st1{fill:#70712F;}
	.st2{fill:#754C28;}
	.st3{fill:#F5CBA2;}
	.st4{fill:#1F2325;}
	.st5{fill:#858935;}
	.st6{fill:#819D3D;}
	.st7{fill:#FFFFFF;}
	.st8{fill:#B95A27;}
	.st9{fill:#F6DCC5;}
	.st10{fill:#F39E70;}
	.st11{fill:#231F20;}
	.st12{fill:#A84826;}
	.st13{fill:url(#XMLID_2_);}
	.st14{fill:#428B41;}
	.st15{fill:#D8D43E;}
	.st16{fill:#603813;}
	.st17{fill:#C5D936;}
	.st18{fill:url(#XMLID_3_);}
	.st19{fill:#754C28;stroke:#8BC53F;stroke-miterlimit:10;}
	.st20{fill:none;}
	.st21{fill:none;stroke:#D7B328;stroke-width:2;stroke-miterlimit:10;}
	.st22{opacity:0.1;}
	.st23{fill:#DEA004;}
	.st24{fill:#F8DC4A;}
	.st25{opacity:0.28;}
	.st26{fill:none;stroke:#F2C341;stroke-width:1.9286;stroke-linecap:round;stroke-linejoin:round;stroke-dasharray:1.8959,5.6875;}
	.st27{fill:#C99204;}
	.st28{opacity:0.16;}
	.st29{fill:#C6A310;}
	.st30{fill:#83C41E;}
	.st31{fill:#9FEF22;}
</style>
<path class="st0" d="M178.7,104.8c-4.4-0.2-8.6,0.7-12.3,2.4c-4-7.7-11.8-13.1-21.1-13.5c-3.8-0.2-7.5,0.6-10.8,1.9
	c-2.5-2.6-5.3-4.9-8.3-7c0.1-1.1,0.2-2.1,0.2-3.2c0-7.1-2.7-13.7-7.1-18.6c0.5-0.1,0.9-0.1,1.5-0.1c-0.6-0.1-1.2-0.1-1.7-0.2
	c-0.4-0.4-0.8-0.8-1.2-1.2c-0.9-5.2-3.9-9.5-8-11.4c3.3-4.1,6-9,6-14c0-2.2-0.2-4.3-0.7-6.4c0.7-2.6,1.1-4.8,1.1-4.8s-1,0.3-2.2,1
	c-0.2-0.5-0.4-1-0.6-1.4c1.5-0.4,2.9-0.8,4.3-1.3c2.5-0.8,3.4-2.6,2.2-3.8h0c-1.2-1.1-3.7-1.4-5.6-0.7c-0.8,0.3-1.7,0.5-2.6,0.8
	l-0.6-4.7c0,0,0,0-0.1,0l-1-6c0-0.1,0.1-0.1,0.1-0.2c0.2-0.3,0.3-0.6,0.3-0.9c0-0.4-0.1-0.7-0.3-1c-0.1-0.2-0.3-0.3-0.5-0.4l-0.8-5
	L87,5.8l-1.8,12.9c0,0,0,0,0,0l-0.5,4.7c-0.9-0.2-1.8-0.5-2.6-0.8c-2-0.7-4.4-0.4-5.6,0.7h0c-1.2,1.1-0.3,2.9,2.2,3.8
	c1.2,0.4,2.4,0.7,3.6,1.1c-0.2,0.5-0.5,1.1-0.7,1.6c-1.3-0.7-2.3-1-2.3-1s0.4,2.3,1.2,4.9c-0.4,2-0.7,4.1-0.7,6.2
	c0,3.9,1.7,7.8,4,11.3c-0.1,0-0.2,0-0.2,0c0,0,0,0.1,0,0.1c0.1,0,0.2,0,0.3,0c0.6,0.9,1.3,1.8,1.9,2.6c-4.3,2.1-7.5,6.8-8.1,12.4
	c-3.9,4.1-6.5,9.5-7.3,15.4c-0.3,1.5-0.4,3.1-0.4,4.7c0,0.1,0,0.2,0,0.3c-7.7,4.5-14.3,10.9-18.9,18.5c-2.1-0.5-4.2-0.8-6.4-0.9
	C25.4,103.5,9,118.4,8.1,137.8c-0.9,19.3,14.1,35.7,33.4,36.6c6.4,0.3,12.5-1.2,17.8-4c9,8.8,21.1,14.5,34.7,15.1
	c16.8,0.8,32.1-6.4,42.4-18.2c3.7,1.8,7.8,2.9,12.2,3.1c11,0.5,20.9-4.8,26.8-13.2c0.3,0,0.6,0.1,0.9,0.1
	c14.5,0.7,26.8-10.6,27.4-25.1C204.4,117.8,193.2,105.5,178.7,104.8z M85.2,60.6c-0.1,0-0.1,0.1-0.2,0.1c0.1-0.1,0.2-0.2,0.3-0.3
	C85.2,60.5,85.2,60.6,85.2,60.6z"/>
<path id="XMLID_134_" class="st1" d="M76.1,64.1c0-5.7,3.9-10.3,8.7-10.3v-5.3c-7.3,0-13.2,7-13.2,15.6c0,8.6,5.9,15.6,13.2,15.6
	v-5.3C80,74.4,76.1,69.8,76.1,64.1z"/>
<path id="XMLID_133_" class="st1" d="M107.5,64.1c0-5.7-3.9-10.3-8.7-10.3v-5.3c7.3,0,13.2,7,13.2,15.6c0,8.6-5.9,15.6-13.2,15.6
	v-5.3C103.6,74.4,107.5,69.8,107.5,64.1z"/>
<polygon id="XMLID_132_" class="st2" points="82,82.2 84.2,99 88.5,99 88.5,82.2 "/>
<rect id="XMLID_131_" x="85.6" y="99" class="st3" width="3.2" height="1.8"/>
<polygon id="XMLID_130_" class="st2" points="101.1,82.2 99,99 94.6,99 94.6,82.2 "/>
<rect id="XMLID_129_" x="95.3" y="99" transform="matrix(-1 -4.359192e-11 4.359192e-11 -1 193.6917 199.8688)" class="st3" width="3.2" height="1.8"/>
<path id="XMLID_128_" class="st4" d="M79.5,100.9c-2.2,0-4,1.8-4,3.9h13v-3.9H79.5z"/>
<path id="XMLID_127_" class="st4" d="M103.6,100.9c2.2,0,4,1.8,4,3.9h-13v-3.9H103.6z"/>
<path id="XMLID_126_" class="st5" d="M103.4,52.2v-7.8h-8.1v1c0,0.6-1.6,1.1-3.5,1.1s-3.5-0.5-3.5-1.1v-1h-8.1v7.8h0
	c0,0-4.5,15.7-2.2,19.9c3.9,7,22.7,6.4,27.3,0C107.9,68.3,103.4,52.2,103.4,52.2z"/>
<polygon id="XMLID_125_" class="st6" points="79.3,43.8 104.2,43.8 91.7,68.8 "/>
<polygon id="XMLID_124_" class="st7" points="84.2,43.8 100,43.8 92.1,64.9 "/>
<path id="XMLID_123_" class="st8" d="M73.7,35.7c0-12.9,8.1-23.3,18-23.3s18,10.4,18,23.3s-18,25-18,25S73.7,48.6,73.7,35.7z"/>
<polygon id="XMLID_122_" class="st5" points="94.6,82.7 106.4,82.7 105.7,76.5 77.5,76.5 76.6,82.7 88.5,82.7 91.5,80.3 "/>
<path id="XMLID_121_" class="st3" d="M73,29"/>
<path id="XMLID_120_" class="st9" d="M104.7,31.8c-0.1-1.2,0-2.3-0.1-3.5c0-0.9-0.1-1.8-0.1-2.8c-0.8-0.8-0.8-1.9-0.6-2.8
	c-8.7,0-17.4-0.1-26.1-0.2l0.1,16.6c0.7,5.8,6.9,0.3,13.9,0.3c6.9,0,12.1,5.4,12.9-0.3c0-0.1,0-2.7,0-6L104.7,31.8
	c-0.1,0.1-0.2,0.1-0.2,0.1C104.6,31.9,104.7,31.8,104.7,31.8z"/>
<circle id="XMLID_119_" class="st3" cx="84.3" cy="32.2" r="1.5"/>
<circle id="XMLID_118_" class="st3" cx="99.4" cy="32.2" r="1.5"/>
<polygon id="XMLID_117_" class="st3" points="97.4,26.8 102.5,26.5 103,28.2 95.4,28.2 "/>
<ellipse id="XMLID_116_" class="st3" cx="91.8" cy="34.3" rx="1.5" ry="2.5"/>
<polygon id="XMLID_115_" class="st3" points="80.4,26 85.4,27 87.1,28.8 79.6,27.6 "/>
<ellipse id="XMLID_114_" class="st10" cx="91.8" cy="34.3" rx="1.5" ry="2.5"/>
<path id="XMLID_111_" class="st11" d="M99.4,30.7c-0.8,0-1.5,0.7-1.5,1.5c0,0.8,0.7,1.5,1.5,1.5c0.8,0,1.5-0.7,1.5-1.5
	C100.8,31.4,100.2,30.7,99.4,30.7z M99.4,32.2c-0.3,0-0.6-0.3-0.6-0.6c0-0.3,0.3-0.6,0.6-0.6c0.3,0,0.6,0.3,0.6,0.6
	C100,31.9,99.7,32.2,99.4,32.2z"/>
<circle id="XMLID_110_" class="st7" cx="99.4" cy="31.5" r="0.6"/>
<path id="XMLID_107_" class="st11" d="M84.3,30.7c-0.8,0-1.5,0.7-1.5,1.5c0,0.8,0.7,1.5,1.5,1.5s1.5-0.7,1.5-1.5
	C85.7,31.4,85.1,30.7,84.3,30.7z M84.3,32.2c-0.3,0-0.6-0.3-0.6-0.6c0-0.3,0.3-0.6,0.6-0.6s0.6,0.3,0.6,0.6
	C84.9,31.9,84.6,32.2,84.3,32.2z"/>
<circle id="XMLID_106_" class="st7" cx="84.3" cy="31.5" r="0.6"/>
<polygon id="XMLID_105_" class="st12" points="85.4,27 80.4,26 79.6,27.6 87.1,28.8 "/>
<polygon id="XMLID_104_" class="st12" points="102.5,26.5 97.4,26.8 95.4,28.2 103,28.2 "/>
<linearGradient id="XMLID_2_" gradientUnits="userSpaceOnUse" x1="79.1633" y1="8.552" x2="105.1071" y2="8.552">
	<stop  offset="0" style="stop-color:#009345"/>
	<stop  offset="1" style="stop-color:#006838"/>
</linearGradient>
<path id="XMLID_103_" class="st13" d="M105.1,14.8L102.8,1L81,1.6l-1.8,13.2C87.5,16.5,96.8,16.5,105.1,14.8z"/>
<path id="XMLID_102_" class="st14" d="M78.6,19.7l-0.2,1.8L106,21l-0.2-1.3C97,21.6,87.4,21.6,78.6,19.7z"/>
<g id="XMLID_98_">
	<rect id="XMLID_101_" x="99.1" y="36.8" class="st10" width="0.8" height="0.8"/>
	<rect id="XMLID_100_" x="97.6" y="37.6" class="st10" width="0.8" height="0.8"/>
	<rect id="XMLID_99_" x="99.5" y="38.8" class="st10" width="0.8" height="0.8"/>
</g>
<g id="XMLID_94_">
	
		<rect id="XMLID_97_" x="82.2" y="36.8" transform="matrix(-1 -4.482871e-11 4.482871e-11 -1 165.091 74.3694)" class="st10" width="0.8" height="0.8"/>
	
		<rect id="XMLID_96_" x="83.7" y="37.6" transform="matrix(-1 -4.482871e-11 4.482871e-11 -1 168.0961 75.8707)" class="st10" width="0.8" height="0.8"/>
	
		<rect id="XMLID_95_" x="81.8" y="38.8" transform="matrix(-1 -4.604018e-11 4.604018e-11 -1 164.3404 78.3448)" class="st10" width="0.8" height="0.8"/>
</g>
<path id="XMLID_93_" class="st15" d="M98.2,10.5C98.2,10.5,98.2,10.5,98.2,10.5c-0.3,0.4-0.5,0.7-0.7,1c-0.2,0.4-0.4,0.8-0.6,1.2
	c-0.2,0.4-0.3,0.7-0.5,1.1c-0.1,0.2-0.3,0.5-0.5,0.7c-0.2,0.2-0.4,0.3-0.7,0.4c-0.2,0-0.3,0-0.5,0c-0.2,0-0.5-0.1-0.7-0.2
	c-0.3-0.1-0.5-0.3-0.6-0.7c-0.1-0.2-0.1-0.4-0.1-0.7c0-0.3,0.1-0.6,0.2-0.9c0,0,0,0,0-0.1c0,0-0.1,0-0.1,0c-0.3,0.1-0.6,0-0.8-0.2
	c-0.2-0.2-0.4-0.4-0.4-0.7c-0.1-0.4-0.1-0.9,0.2-1.2c0.2-0.3,0.4-0.5,0.7-0.6c0.3-0.1,0.5-0.2,0.8-0.2c0.2,0,0.4,0,0.7,0
	c0.3,0,0.6,0,0.9,0.1c0.9,0.1,1.8,0.4,2.6,0.7c0,0,0,0,0.1,0c0,0,0,0-0.1,0c-0.3-0.2-0.6-0.4-1-0.5c-0.4-0.2-0.9-0.3-1.3-0.4
	c-0.4-0.1-0.8-0.2-1.2-0.4c-0.2-0.1-0.4-0.2-0.6-0.3c-0.4-0.3-0.7-0.7-0.8-1.2c0-0.2-0.1-0.4-0.1-0.6c0-0.1,0-0.2,0.1-0.3
	c0.1-0.3,0.3-0.5,0.5-0.6c0.2-0.1,0.4-0.1,0.6-0.2c0.4,0,0.7,0,1.1,0.1c0,0,0,0,0,0c-0.2-0.4-0.2-0.9,0.1-1.2
	c0.2-0.3,0.6-0.5,0.9-0.5c0.6-0.1,1.1,0.1,1.5,0.6c0.2,0.3,0.4,0.6,0.5,0.9c0.1,0.3,0.2,0.7,0.2,1c0.1,0.5,0.1,1.1,0.1,1.7
	c0,0.4-0.1,0.9-0.1,1.3c0,0.3-0.1,0.5-0.1,0.8c0,0,0,0,0,0c0-0.1,0.1-0.1,0.1-0.2c0.1-0.3,0.2-0.6,0.2-1c0.1-0.5,0.1-0.9,0.1-1.4
	c0-0.4,0-0.8,0-1.2c0-0.4,0.1-0.8,0.2-1.1c0.1-0.2,0.2-0.4,0.3-0.6c0.2-0.2,0.5-0.4,0.8-0.5c0.2,0,0.4-0.1,0.6-0.1
	c0.4,0,0.7,0.1,1,0.3c0.2,0.2,0.4,0.4,0.5,0.6c0.1,0.2,0.2,0.5,0.2,0.7c0,0.1,0,0.3,0,0.4c0,0,0,0,0,0c0,0,0,0,0,0
	c0.3-0.3,0.6-0.3,0.9-0.2c0.3,0.1,0.6,0.3,0.8,0.6c0.2,0.3,0.3,0.6,0.3,1c0,0.3-0.1,0.6-0.3,0.9c-0.2,0.3-0.4,0.5-0.7,0.7
	c-0.4,0.2-0.7,0.4-1.1,0.6c-0.5,0.2-0.9,0.3-1.4,0.4c-0.3,0.1-0.6,0.1-0.9,0.1c-0.2,0-0.5,0-0.7,0.1c-0.2,0-0.4,0-0.6,0
	c0.1,0,0.2,0,0.2,0c0.4,0.1,0.8,0.1,1.1,0.1c0.3,0,0.6,0,0.8-0.1c0.2,0,0.5,0,0.7-0.1c0.3,0,0.6,0,0.8,0c0.3,0,0.6,0,0.8,0.1
	c0.4,0.1,0.6,0.4,0.8,0.8c0.1,0.3,0.2,0.6,0.2,0.9c0,0.4-0.2,0.8-0.5,1c-0.2,0.2-0.5,0.3-0.7,0.3c-0.2,0-0.3,0.1-0.5,0.1
	c0,0,0,0-0.1,0c0,0,0,0,0,0c0.2,0.2,0.3,0.5,0.3,0.8c-0.1,0.4-0.3,0.7-0.6,0.9c-0.3,0.2-0.6,0.3-1,0.3c-0.2,0-0.5-0.1-0.7-0.2
	c-0.3-0.2-0.5-0.4-0.7-0.7c-0.3-0.4-0.5-0.8-0.7-1.2c-0.2-0.6-0.4-1.2-0.6-1.8c-0.1-0.3-0.1-0.6-0.2-0.9c0,0,0,0,0-0.1
	c0,0.1,0,0.2-0.1,0.2c-0.1,0.5-0.2,1-0.3,1.5c-0.1,0.5-0.1,1.1-0.1,1.6c0,1.2,0.2,2.4,0.7,3.6c0.4,0.9,0.9,1.7,1.5,2.4
	c0.1,0.2,0.3,0.3,0.4,0.4c0,0,0,0,0,0c0,0,0,0.1,0,0.1c0,0-0.1,0-0.1,0c0,0-0.1,0-0.1-0.1c-0.4-0.3-0.7-0.7-1-1.1
	c-0.7-1-1.2-2.1-1.5-3.3c-0.1-0.4-0.2-0.9-0.2-1.3c0-0.5-0.1-0.9,0-1.4C97.8,12.5,97.9,11.5,98.2,10.5
	C98.2,10.6,98.2,10.5,98.2,10.5C98.2,10.5,98.2,10.5,98.2,10.5z"/>
<path id="XMLID_92_" class="st16" d="M79.2,14.5l-0.6,5.2c8.8,1.9,18.4,1.9,27.2,0l-0.7-5.2C96.8,16.6,87.5,16.6,79.2,14.5z"/>
<path id="XMLID_91_" class="st17" d="M93.1,22.2h-2.5c-0.8,0-1.4-0.6-1.4-1.4v-2.2c0-0.8,0.6-1.4,1.4-1.4h2.5c0.8,0,1.4,0.6,1.4,1.4
	v2.2C94.5,21.6,93.9,22.2,93.1,22.2z"/>
<linearGradient id="XMLID_3_" gradientUnits="userSpaceOnUse" x1="114.406" y1="22.0101" x2="69.8711" y2="22.0101">
	<stop  offset="0" style="stop-color:#009345"/>
	<stop  offset="1" style="stop-color:#006838"/>
</linearGradient>
<path id="XMLID_90_" class="st18" d="M111.7,22.9c-12.3,4.1-26.8,4.1-39.1,0c-2.5-0.8-3.4-2.6-2.2-3.8l0,0c1.2-1.1,3.7-1.4,5.6-0.7
	c10.1,3.4,22.1,3.4,32.3,0c2-0.7,4.4-0.4,5.6,0.7l0,0C115.1,20.3,114.2,22.1,111.7,22.9z"/>
<polygon id="XMLID_89_" class="st7" points="94.4,18.4 94.9,18.4 94.5,18.1 97.1,17.8 94.5,17.5 94.9,17.2 94.4,17.2 96,15.2 
	93.9,16.8 94,16.3 93.7,16.7 93.4,14.1 93,16.7 92.7,16.3 92.8,16.8 90.7,15.2 92.3,17.2 91.8,17.2 92.2,17.5 89.6,17.8 92.2,18.1 
	91.8,18.4 92.3,18.4 90.7,20.4 92.8,18.8 92.7,19.3 93,18.9 93.4,21.5 93.7,18.9 94,19.3 93.9,18.8 96,20.4 "/>
<polygon id="XMLID_88_" class="st2" points="78,72.1 77.5,76.5 105.7,76.5 105.3,72.1 "/>
<path id="XMLID_85_" class="st17" d="M93.4,70.9h-1.9c-1.4,0-2.6,1.2-2.6,2.6v1.6c0,1.4,1.2,2.6,2.6,2.6h1.9c1.4,0,2.6-1.2,2.6-2.6
	v-1.6C95.9,72.1,94.8,70.9,93.4,70.9z M94.6,75.1c0,0.7-0.5,1.2-1.2,1.2h-1.9c-0.7,0-1.2-0.5-1.2-1.2v-0.6h1.5v-0.8h-1.5v-0.2
	c0-0.7,0.5-1.2,1.2-1.2h1.9c0.7,0,1.2,0.5,1.2,1.2V75.1z"/>
<circle id="XMLID_84_" class="st19" cx="86.8" cy="74.3" r="0.6"/>
<circle id="XMLID_83_" class="st19" cx="84.4" cy="74.3" r="0.6"/>
<circle id="XMLID_82_" class="st19" cx="82" cy="74.3" r="0.6"/>
<path id="XMLID_81_" class="st7" d="M92.1,45.4c-0.5,0-4.8-1.6-5.3,0c-0.4,1.5,2.1,4.2,4.9,4.4c3,0.2,6-2.5,5.7-4.1
	C97.1,44,94.3,45.3,92.1,45.4z"/>
<polygon id="XMLID_80_" class="st7" points="94.7,72.5 95.1,72.5 94.8,72.3 96.8,72.1 94.8,71.8 95.1,71.6 94.7,71.6 95.9,70 
	94.4,71.3 94.4,70.9 94.2,71.2 93.9,69.2 93.7,71.2 93.4,70.9 93.5,71.3 91.9,70 93.1,71.6 92.8,71.6 93.1,71.8 91.1,72.1 
	93.1,72.3 92.8,72.5 93.1,72.5 91.9,74.1 93.5,72.8 93.4,73.2 93.7,72.9 93.9,74.9 94.2,72.9 94.4,73.2 94.4,72.8 95.9,74.1 "/>
<path id="XMLID_79_" class="st20" d="M77.5,47.1c0.9,0,1.7,0,2.6,0c0,0,0-0.1,0-0.1c-0.9,0-1.7,0-2.6,0C77.5,47,77.5,47.1,77.5,47.1
	z"/>
<path id="XMLID_78_" class="st9" d="M102.9,31.8c0.4-5,7.3-7.2,7.3-7.2s-2.6,13-5.2,12.8C103.6,37.2,102.7,34.1,102.9,31.8z"/>
<path id="XMLID_77_" class="st9" d="M80.5,31.8c-0.4-5-7.3-7.2-7.3-7.2s2.6,13,5.2,12.8C79.8,37.2,80.7,34.1,80.5,31.8z"/>
<g id="XMLID_72_">
	<g id="XMLID_73_">
		<path id="XMLID_76_" class="st10" d="M76.1,30.5c0-0.1-0.9-3.1-1-3.3l0,0l0,0c0,0,0.1-0.1,2.8,2.8l-0.1,0.1
			c-0.9-1-2.3-2.4-2.6-2.7C75.4,28,76.1,30.5,76.1,30.5L76.1,30.5z"/>
		<path id="XMLID_74_" class="st10" d="M76,30.7l0-0.1c0,0-0.9-3.1-1-3.3l0-0.1l0.1-0.1l-0.1-0.2l0.2,0.1c0.2,0,0.5,0.3,2.9,2.8
			l0.1,0.1l-0.3,0.3l-0.1-0.1c-0.8-0.8-1.7-1.8-2.2-2.3c0.2,0.8,0.6,2.2,0.7,2.5l0.1,0.2L76,30.7z"/>
	</g>
</g>
<g id="XMLID_57_">
	<g id="XMLID_69_">
		<path id="XMLID_71_" class="st10" d="M107.2,30.5c0-0.1,0.9-3.1,1-3.3l0,0l0,0c0,0-0.1-0.1-2.8,2.8l0.1,0.1c0.9-1,2.3-2.4,2.6-2.7
			C107.8,28,107.1,30.5,107.2,30.5L107.2,30.5z"/>
		<path id="XMLID_70_" class="st10" d="M107.3,30.7l0-0.1c0,0,0.9-3.1,1-3.3l0-0.1l-0.1-0.1l0.1-0.2l-0.2,0.1
			c-0.2,0-0.5,0.3-2.9,2.8l-0.1,0.1l0.3,0.3l0.1-0.1c0.8-0.8,1.7-1.8,2.2-2.3c-0.2,0.8-0.6,2.2-0.7,2.5l-0.1,0.2L107.3,30.7z"/>
	</g>
</g>
<circle id="XMLID_56_" class="st21" cx="84.8" cy="32.2" r="4.6"/>
<circle id="XMLID_54_" class="st21" cx="99.5" cy="32.2" r="4.6"/>
<path class="st7" d="M172.6,100.6c-4.4-0.2-8.6,0.7-12.3,2.4c-4-7.7-11.8-13.1-21.1-13.5c-3.8-0.2-7.5,0.6-10.8,1.9
	c-9.1-9.3-21.6-15.4-35.6-16c-20.1-0.9-38,9.5-47.8,25.6c-2.1-0.5-4.2-0.8-6.4-0.9C19.3,99.3,3,114.2,2.1,133.6s14.1,35.7,33.4,36.6
	c6.4,0.3,12.5-1.2,17.8-4c9,8.8,21.1,14.5,34.7,15.1c16.8,0.8,32.1-6.4,42.4-18.2c3.7,1.8,7.8,2.9,12.2,3.1
	c11,0.5,20.9-4.8,26.8-13.2c0.3,0,0.6,0.1,0.9,0.1c14.5,0.7,26.8-10.6,27.4-25.1C198.4,113.6,187.1,101.3,172.6,100.6z"/>
<g>
	<ellipse class="st22" cx="91.6" cy="110.6" rx="25.9" ry="1.6"/>
	<circle class="st23" cx="92.2" cy="81.3" r="28.1"/>
	<circle class="st24" cx="91.6" cy="82.2" r="27.6"/>
	<g class="st25">
		<path class="st7" d="M110.7,62.2L70.2,99.7c0.6,0.7,1.2,1.4,1.9,2.1l40.5-37.5C112,63.5,111.4,62.8,110.7,62.2z"/>
		<path class="st7" d="M117.7,72.8c-0.8-2.2-1.8-4.2-3.1-6.1l-40.1,37.1c1.8,1.4,3.7,2.6,5.8,3.5L117.7,72.8z"/>
		<path class="st7" d="M65.5,91.2c0.8,2.3,1.9,4.5,3.3,6.5l40.1-37.1c-1.9-1.5-4-2.8-6.2-3.7L65.5,91.2z"/>
	</g>
	<g>
		<circle class="st26" cx="91.6" cy="82" r="25.4"/>
	</g>
	<circle class="st27" cx="91.6" cy="82.2" r="23.1"/>
	<circle class="st23" cx="91.6" cy="82.2" r="22.1"/>
	<g class="st28">
		<path class="st7" d="M70,87c0.5,2.5,1.5,4.8,2.8,6.9l31.9-29.5c-2-1.5-4.2-2.6-6.7-3.3L70,87z"/>
		<path class="st7" d="M106.7,66l-32.4,30c0.6,0.7,1.2,1.4,1.9,2.1l32.4-30C108,67.2,107.3,66.6,106.7,66z"/>
		<path class="st7" d="M113.1,77c-0.6-2.3-1.5-4.5-2.7-6.5l-31.9,29.5c1.9,1.4,4,2.4,6.2,3.2L113.1,77z"/>
	</g>
	<path class="st7" d="M107.6,55.2c-0.4,6-1.3,6.8-7.1,7.3c5.7,0.5,6.6,1.3,7.1,7.3c0.4-6,1.3-6.8,7.1-7.3
		C108.9,62,108,61.2,107.6,55.2z"/>
	<path class="st29" d="M78.7,87c0-0.1,0-0.3,0-0.4c0-0.1,0-0.1,0-0.2c0-0.3,0.1-0.7,0.1-1c0.3-1.7,1.7-3.1,3.4-3.3
		c0.9-0.1,1.8-0.1,2.7-0.2c0.5,0,1.1-0.1,1.6-0.1c0.2,0,0.3,0,0.4-0.2c-0.1,0-0.2,0-0.2-0.1c-0.5-0.1-1-0.1-1.6-0.2
		c-1-0.1-1.9-0.2-2.9-0.4c-0.9-0.1-1.7-0.5-2.5-1c-0.5-0.4-1-0.9-1.1-1.6c0-0.1,0-0.2,0-0.3c0-0.2,0-0.5,0-0.7c0-0.1,0-0.1,0-0.2
		c0.1-0.5,0.2-1,0.5-1.4c0.6-0.8,1.3-1.3,2.1-1.9c0,0,0.1-0.1,0.1-0.1c0.4-0.6,0.8-1.1,1.3-1.7c0.5-0.6,1-1.1,1.6-1.5
		c0.6-0.4,1.3-0.6,2.1-0.5c1.7,0.2,3,1.5,3.3,3.1c0.2,1.1,0.3,2.2,0.4,3.3c0.1,0.4,0.1,0.9,0.2,1.3c0,0,0,0,0,0c0-0.1,0-0.1,0-0.2
		c0.1-1.3,0.2-2.6,0.3-3.9c0-0.4,0-0.8,0.2-1.1c0.6-1.2,1.4-2.1,2.6-2.6c0.4-0.2,0.7-0.2,1.1-0.4c0.2,0,0.5,0,0.7,0c0,0,0,0,0,0
		c0.7,0.1,1.2,0.4,1.7,0.8c0.4,0.4,0.8,0.9,1.1,1.4c0.4,0.5,0.8,1,1.3,1.3c0.3,0.2,0.6,0.4,0.9,0.6c1,0.7,1.5,1.5,1.4,2.7
		c0,0.2,0,0.4-0.1,0.6c-0.1,1.1-0.6,2-1.4,2.6c-0.1,0.1-0.2,0.2-0.3,0.2c-0.9,0.6-1.9,1.1-3.1,1.3c-0.9,0.1-1.8,0.2-2.7,0.3
		c-0.2,0-0.4,0.1-0.6,0.1c0,0,0,0.1,0,0.1c0.2,0,0.4,0,0.7,0c1,0,1.9,0,2.9,0c0.7,0,1.4,0.1,2.2,0.2c0.9,0.2,1.7,0.5,2.3,1.3
		c0.4,0.4,0.6,0.9,0.8,1.5c0,0.3,0,0.6,0,0.9c0,0.1,0,0.1,0,0.2c-0.1,0.4-0.1,0.8-0.2,1.2c-0.1,0.4-0.3,0.7-0.5,1.1
		c-0.1,0.1-0.2,0.2-0.3,0.3c-0.2,0.2-0.5,0.3-0.6,0.5c-0.5,0.6-0.9,1.2-1.2,1.9c-0.3,0.7-0.8,1.3-1.4,1.7c-1.2,0.9-2.7,0.5-3.4,0
		c-0.6-0.4-1.2-0.9-1.6-1.5c-0.4-0.6-0.9-1.1-1-1.9c0-0.2-0.1-0.4-0.1-0.6c-0.2-0.7-0.3-1.3-0.5-2c0,0,0,0-0.1,0
		c0,0.1-0.1,0.2-0.1,0.3c0,0.6,0,1.2,0,1.8c0,0.8,0.1,1.6,0.3,2.4c0.3,0.9,0.6,1.8,1.3,2.5c0.2,0.2,0.4,0.3,0.5,0.5
		c0.2,0.2,0.4,0.5,0.3,0.8c0,0.2-0.1,0.4-0.1,0.6c-0.1,0-0.1,0-0.2,0c-0.1,0-0.1,0-0.2-0.1c-0.7-0.1-1.3-0.5-1.8-1
		c-1.1-1.2-1.6-2.6-1.7-4.2c-0.1-1,0-2,0-3c0-0.4,0-0.9,0.1-1.3c-0.2,0-0.4,0.1-0.4,0.3c-0.1,0.1-0.1,0.3-0.1,0.4
		c-0.2,1-0.3,2-0.5,3c-0.1,0.6-0.3,1.3-0.6,1.9c-0.5,0.9-1.3,1.4-2.2,1.7c-0.5,0.1-1,0-1.4,0c-0.9-0.1-1.7-0.4-2.3-1.1
		c-0.5-0.7-1-1.3-1.4-2.1c-0.1-0.2-0.2-0.3-0.4-0.5c-0.3-0.3-0.6-0.6-0.9-0.9C79.3,88,78.9,87.5,78.7,87z"/>
	<path class="st24" d="M80.3,86.3c0-0.1,0-0.3,0-0.4c0-0.1,0-0.1,0-0.2c0-0.3,0.1-0.7,0.1-1c0.3-1.7,1.7-3.1,3.4-3.3
		c0.9-0.1,1.8-0.1,2.7-0.2c0.5,0,1.1-0.1,1.6-0.1c0.2,0,0.3,0,0.4-0.2c-0.1,0-0.2,0-0.2-0.1c-0.5-0.1-1-0.1-1.6-0.2
		c-1-0.1-1.9-0.2-2.9-0.4c-0.9-0.1-1.7-0.5-2.5-1c-0.5-0.4-1-0.9-1.1-1.6c0-0.1,0-0.2,0-0.3c0-0.2,0-0.5,0-0.7c0-0.1,0-0.1,0-0.2
		c0.1-0.5,0.2-1,0.5-1.4c0.6-0.8,1.3-1.3,2.1-1.9c0,0,0.1-0.1,0.1-0.1c0.4-0.6,0.8-1.1,1.3-1.7c0.5-0.6,1-1.1,1.6-1.5
		c0.6-0.4,1.3-0.6,2.1-0.5c1.7,0.2,3,1.5,3.3,3.1c0.2,1.1,0.3,2.2,0.4,3.3c0.1,0.4,0.1,0.9,0.2,1.3c0,0,0,0,0,0c0-0.1,0-0.1,0-0.2
		c0.1-1.3,0.2-2.6,0.3-3.9c0-0.4,0-0.8,0.2-1.1c0.6-1.2,1.4-2.1,2.6-2.6c0.4-0.2,0.7-0.2,1.1-0.4c0.2,0,0.5,0,0.7,0c0,0,0,0,0,0
		c0.7,0.1,1.2,0.4,1.7,0.8c0.4,0.4,0.8,0.9,1.1,1.4c0.4,0.5,0.8,1,1.3,1.3c0.3,0.2,0.6,0.4,0.9,0.6c1,0.7,1.5,1.5,1.4,2.7
		c0,0.2,0,0.4-0.1,0.6c-0.1,1.1-0.6,2-1.4,2.6c-0.1,0.1-0.2,0.2-0.3,0.2c-0.9,0.6-1.9,1.1-3.1,1.3c-0.9,0.1-1.8,0.2-2.7,0.3
		c-0.2,0-0.4,0.1-0.6,0.1c0,0,0,0.1,0,0.1c0.2,0,0.4,0,0.7,0c1,0,1.9,0,2.9,0c0.7,0,1.4,0.1,2.2,0.2c0.9,0.2,1.7,0.5,2.3,1.3
		c0.4,0.4,0.6,0.9,0.8,1.5c0,0.3,0,0.6,0,0.9c0,0.1,0,0.1,0,0.2c-0.1,0.4-0.1,0.8-0.2,1.2c-0.1,0.4-0.3,0.7-0.5,1.1
		c-0.1,0.1-0.2,0.2-0.3,0.3c-0.2,0.2-0.5,0.3-0.6,0.5c-0.5,0.6-0.9,1.2-1.2,1.9c-0.3,0.7-0.8,1.3-1.4,1.7c-1.2,0.9-2.7,0.5-3.4,0
		c-0.6-0.4-1.2-0.9-1.6-1.5c-0.4-0.6-0.9-1.1-1-1.9c0-0.2-0.1-0.4-0.1-0.6c-0.2-0.7-0.3-1.3-0.5-2c0,0,0,0-0.1,0
		c0,0.1-0.1,0.2-0.1,0.3c0,0.6,0,1.2,0,1.8c0,0.8,0.1,1.6,0.3,2.4c0.3,0.9,0.6,1.8,1.3,2.5c0.2,0.2,0.4,0.3,0.5,0.5
		c0.2,0.2,0.4,0.5,0.3,0.8c0,0.2-0.1,0.4-0.1,0.6c-0.1,0-0.1,0-0.2,0c-0.1,0-0.1,0-0.2-0.1c-0.7-0.1-1.3-0.5-1.8-1
		c-1.1-1.2-1.6-2.6-1.7-4.2c-0.1-1,0-2,0-3c0-0.4,0-0.9,0.1-1.3c-0.2,0-0.4,0.1-0.4,0.3c-0.1,0.1-0.1,0.3-0.1,0.4
		c-0.2,1-0.3,2-0.5,3c-0.1,0.6-0.3,1.3-0.6,1.9c-0.5,0.9-1.3,1.4-2.2,1.7c-0.5,0.1-1,0-1.4,0c-0.9-0.1-1.7-0.4-2.3-1.1
		c-0.5-0.7-1-1.3-1.4-2.1c-0.1-0.2-0.2-0.3-0.4-0.5c-0.3-0.3-0.6-0.6-0.9-0.9C80.8,87.3,80.4,86.9,80.3,86.3z"/>
	<path class="st7" d="M85.1,87.6c-0.3,3.8-0.8,4.3-4.4,4.6c3.6,0.3,4.1,0.8,4.4,4.6c0.3-3.8,0.8-4.3,4.4-4.6
		C85.9,91.9,85.4,91.4,85.1,87.6z"/>
</g>
<g>
	<path class="st30" d="M84.9,135.7c0,2.4-0.7,4.4-2.2,6c-1.5,1.6-3.3,2.3-5.4,2.3c-3,0-5.7-1.5-8.1-4.6c-2.3-2.9-3.6-4.8-3.9-5.8
		c-0.1,4.3-0.6,7.3-1.4,9.2c-1.2,2.6-3.5,3.9-6.9,3.9c-1.1,0-2.4-0.1-3.9-0.4c-8.5-1.7-12.8-5.3-12.8-10.9c0-3.9,2.1-8.5,6.4-13.8
		c-0.7,0.3-1.5,0.4-2.4,0.4c-1.2,0-2.5-0.2-3.7-0.7l1-5c1.4,0.9,3.3,1.6,5.7,2.2c2.3,0.5,4.7,0.8,7.2,0.8c0.1,0,0.3,0,0.6,0
		c0.3,0,0.5,0,0.6,0c-3.5,6.5-5.3,12-5.3,16.5c0,1.8,0.4,3.4,1.2,4.7c0.7,1.2,1.5,1.8,2.4,1.8c1.4,0,2.5-2,3.4-5.9
		c1-4.1,1.4-8.4,1.4-12.8c0-2.9-0.3-5.2-0.8-7.1c2.7-0.3,6.7-0.9,11.9-1.8c0.1,0.5,0.3,1.2,0.5,2.1c-0.9,0.2-2.2,0.5-3.7,1
		c-0.5,0.8-0.9,2.8-1.1,5.9c0.5,3.3,1.5,6.2,2.9,8.8c1.4,2.7,2.9,4,4.2,4c1.1,0,1.6-1,1.6-3c0-2-0.5-4.5-1.4-7.5
		c-0.8-2.8-1.7-4.9-2.5-6.2c3.7,0.1,6.9,0.1,9.7,0.1c1.3,0,2.6,0,4.1-0.1c-0.4,0.8-0.8,1.5-1.2,2.1l-5.2,0.9
		C82.6,127.1,84.9,131.4,84.9,135.7z"/>
	<path class="st30" d="M114.4,145c0,0.2-0.1,0.2-0.3,0.2c-0.1,0-1.2-0.1-3.3-0.3c-2.1-0.2-3.8-0.3-5.1-0.3c-2.2,0-6.1,0.5-11.7,1.4
		c0-0.5,0.2-1.6,0.5-3.3c0,0,0.5-0.1,1.6-0.3c1.1-0.2,1.9-0.5,2.3-1c0.3-0.3,0.7-2.2,1.2-5.7c0.6-3.7,0.8-7,0.8-9.8
		c0-2.5-0.3-4.2-0.8-5.1c-0.1-0.3-0.4-0.4-0.8-0.4c-0.3,0-0.7,0.1-1.1,0.2s-0.7,0.2-0.8,0.2c-0.2,0-0.6-0.4-1.1-1.1
		c-0.5-0.7-0.8-1.3-0.8-1.7c0-0.2,0.2-0.3,0.7-0.3c1.6,0,4.3-0.2,8-0.6c4.2-0.5,7.4-0.9,9.3-1.5c0.1-0.1,0.1,0.2,0.1,0.9
		c0,0.6-0.1,1-0.3,1.1c-1.6,0.7-2.7,2.1-3.3,4.2c-0.3,1.2-0.6,4-0.9,8.4c0,0.8-0.1,1.5-0.1,2.1c0,4.3,0.5,6.9,1.5,8
		c0.3,0.3,0.7,0.5,1.2,0.5c0.4,0,0.8-0.1,1.4-0.3s0.9-0.3,1-0.3c0.1,0,0.2,0.2,0.2,0.5C114.3,142.5,114.4,143.9,114.4,145z"/>
	<path class="st30" d="M152.5,146.8c-0.1,0.3-0.3,0.9-0.7,1.9c-0.5-0.1-2.5-0.6-5.8-1.5c-3.1-0.8-4.9-1.3-5.3-1.4
		c1.6-3.5,2.4-7.7,2.4-12.5c0-2-0.2-3.7-0.7-5c-0.5-1.4-1.1-2.1-1.9-2.1c-0.9,0-2,0.8-3.3,2.5c-1.4,1.8-2.3,3.8-2.8,6.1
		c0,1.9,0.6,5.5,1.9,11.1c-2.6-1.1-5.4-1.7-8.2-1.7c-2.1,0-3.6,0.4-4.3,1.2l-0.2-4.5c0.5-0.2,1-0.4,1.7-0.4c0.9,0,1.7,0.2,2.6,0.6
		c-1.5-4.2-2.3-9.7-2.3-16.7c0-0.5,0-1.2,0.1-2.2c0-0.9,0.1-1.6,0.1-2.1c0-0.8-0.5-1.3-1.4-1.5c-0.4-0.1-1.1-0.2-2.1-0.4
		c-0.3-0.1-0.4-0.6-0.4-1.7c0-0.2,0-0.5,0.1-0.8c1.2,0.2,6.2,0.7,15,1.4c-2,2.8-3.1,6.4-3.1,10.9c0,0.6,0,1.1,0.1,1.5
		c0.7-2.8,2-5.4,3.8-7.7c1.4-1.9,3.1-3.4,5-4.6c1.6-1,2.8-1.5,3.8-1.5c1.6,0,2.8,1,3.7,3.1c0.8,1.9,1.1,4.4,1.1,7.5
		c0,2-0.3,4.9-1,8.8c-0.7,3.9-1,6.8-1,8.7c0,0.9,0.1,1.5,0.3,2C149.9,145.8,150.9,146.2,152.5,146.8z"/>
</g>
<g>
	<path class="st31" d="M84.9,139.3c0,2.4-0.7,4.4-2.2,6c-1.5,1.6-3.3,2.3-5.4,2.3c-3,0-5.7-1.5-8.1-4.6c-2.3-2.9-3.6-4.8-3.9-5.8
		c-0.1,4.3-0.6,7.3-1.4,9.2c-1.2,2.6-3.5,3.9-6.9,3.9c-1.1,0-2.4-0.1-3.9-0.4c-8.5-1.7-12.8-5.3-12.8-10.9c0-3.9,2.1-8.5,6.4-13.8
		c-0.7,0.3-1.5,0.4-2.4,0.4c-1.2,0-2.5-0.2-3.7-0.7l1-5c1.4,0.9,3.3,1.6,5.7,2.2c2.3,0.5,4.7,0.8,7.2,0.8c0.1,0,0.3,0,0.6,0
		c0.3,0,0.5,0,0.6,0c-3.5,6.5-5.3,12-5.3,16.5c0,1.8,0.4,3.4,1.2,4.7c0.7,1.2,1.5,1.8,2.4,1.8c1.4,0,2.5-2,3.4-5.9
		c1-4.1,1.4-8.4,1.4-12.8c0-2.9-0.3-5.2-0.8-7.1c2.7-0.3,6.7-0.9,11.9-1.8c0.1,0.5,0.3,1.2,0.5,2.1c-0.9,0.2-2.2,0.5-3.7,1
		c-0.5,0.8-0.9,2.8-1.1,5.9c0.5,3.3,1.5,6.2,2.9,8.8c1.4,2.7,2.9,4,4.2,4c1.1,0,1.6-1,1.6-3c0-2-0.5-4.5-1.4-7.5
		c-0.8-2.8-1.7-4.9-2.5-6.2c3.7,0.1,6.9,0.1,9.7,0.1c1.3,0,2.6,0,4.1-0.1c-0.4,0.8-0.8,1.5-1.2,2.1l-5.2,0.9
		C82.6,130.7,84.9,135.1,84.9,139.3z"/>
	<path class="st31" d="M114.4,148.7c0,0.2-0.1,0.2-0.3,0.2c-0.1,0-1.2-0.1-3.3-0.3c-2.1-0.2-3.8-0.3-5.1-0.3
		c-2.2,0-6.1,0.5-11.7,1.4c0-0.5,0.2-1.6,0.5-3.3c0,0,0.5-0.1,1.6-0.3c1.1-0.2,1.9-0.5,2.3-1c0.3-0.3,0.7-2.2,1.2-5.7
		c0.6-3.7,0.8-7,0.8-9.8c0-2.5-0.3-4.2-0.8-5.1c-0.1-0.3-0.4-0.4-0.8-0.4c-0.3,0-0.7,0.1-1.1,0.2s-0.7,0.2-0.8,0.2
		c-0.2,0-0.6-0.4-1.1-1.1c-0.5-0.7-0.8-1.3-0.8-1.7c0-0.2,0.2-0.3,0.7-0.3c1.6,0,4.3-0.2,8-0.6c4.2-0.5,7.4-0.9,9.3-1.5
		c0.1-0.1,0.1,0.2,0.1,0.9c0,0.6-0.1,1-0.3,1.1c-1.6,0.7-2.7,2.1-3.3,4.2c-0.3,1.2-0.6,4-0.9,8.4c0,0.8-0.1,1.5-0.1,2.1
		c0,4.3,0.5,6.9,1.5,8c0.3,0.3,0.7,0.5,1.2,0.5c0.4,0,0.8-0.1,1.4-0.3s0.9-0.3,1-0.3c0.1,0,0.2,0.2,0.2,0.5
		C114.3,146.2,114.4,147.5,114.4,148.7z"/>
	<path class="st31" d="M152.5,150.4c-0.1,0.3-0.3,0.9-0.7,1.9c-0.5-0.1-2.5-0.6-5.8-1.5c-3.1-0.8-4.9-1.3-5.3-1.4
		c1.6-3.5,2.4-7.7,2.4-12.5c0-2-0.2-3.7-0.7-5c-0.5-1.4-1.1-2.1-1.9-2.1c-0.9,0-2,0.8-3.3,2.5c-1.4,1.8-2.3,3.8-2.8,6.1
		c0,1.9,0.6,5.5,1.9,11.1c-2.6-1.1-5.4-1.7-8.2-1.7c-2.1,0-3.6,0.4-4.3,1.2l-0.2-4.5c0.5-0.2,1-0.4,1.7-0.4c0.9,0,1.7,0.2,2.6,0.6
		c-1.5-4.2-2.3-9.7-2.3-16.7c0-0.5,0-1.2,0.1-2.2c0-0.9,0.1-1.6,0.1-2.1c0-0.8-0.5-1.3-1.4-1.5c-0.4-0.1-1.1-0.2-2.1-0.4
		c-0.3-0.1-0.4-0.6-0.4-1.7c0-0.2,0-0.5,0.1-0.8c1.2,0.2,6.2,0.7,15,1.4c-2,2.8-3.1,6.4-3.1,10.9c0,0.6,0,1.1,0.1,1.5
		c0.7-2.8,2-5.4,3.8-7.7c1.4-1.9,3.1-3.4,5-4.6c1.6-1,2.8-1.5,3.8-1.5c1.6,0,2.8,1,3.7,3.1c0.8,1.9,1.1,4.4,1.1,7.5
		c0,2-0.3,4.9-1,8.8c-0.7,3.9-1,6.8-1,8.7c0,0.9,0.1,1.5,0.3,2C149.9,149.5,150.9,149.9,152.5,150.4z"/>
</g>
</svg>
