<svg xmlns="http://www.w3.org/2000/svg" width="172" height="50" viewBox="0 0 172 50">
  <g fill="none" fill-rule="evenodd">
    <rect width="172" height="50" fill="#000" rx="10"/>
    <path fill="#FFF" d="M31.6886857,16.2488095 C34.9314286,16.2488095 37.0050286,19.3863333 37.0050286,19.3863333 C37.0050286,19.3863333 33.8418286,21.1028571 33.8418286,24.8307381 C33.8418286,29.2553095 37.8155429,30.5423571 37.8155429,30.5423571 C37.8155429,30.5423571 34.6790857,37.9843095 31.1572571,37.9843095 C29.1769143,37.9843095 29.0445714,36.8450238 26.4128,36.8450238 C24.1273143,36.8450238 23.3565714,37.9843095 21.6155429,37.9843095 C18.2925714,37.9843095 14,30.7301667 14,24.8307381 C14,18.7027619 18.3460571,16.2488095 21.0704,16.2488095 C23.4628571,16.2488095 24.4592,17.6566905 26.3860571,17.6566905 C28.0077714,17.6566905 29.2838857,16.2488095 31.6886857,16.2488095 L31.6886857,16.2488095 Z M31.1312,10 C31.6091429,13.0035714 28.8848,16.7183333 25.6290286,16.5975 C25.1504,12.7757143 28.6592,10.201619 31.1312,10 L31.1312,10 Z"/>
    <text fill="#FFF" font-family="HelveticaNeue, Helvetica Neue" font-size="24">
      <tspan x="49" y="34">App Store</tspan>
    </text>
  </g>
</svg>
