<?xml version="1.0" encoding="utf-8"?>
<!-- Generator: Adobe Illustrator 21.0.2, SVG Export Plug-In . SVG Version: 6.00 Build 0)  -->
<svg version="1.1" id="Слой_1" xmlns="http://www.w3.org/2000/svg" xmlns:xlink="http://www.w3.org/1999/xlink" x="0px" y="0px"
	 viewBox="0 0 1920 1080" style="enable-background:new 0 0 1920 1080;" xml:space="preserve">
<style type="text/css">
	.st0{fill:#5B92D3;}
	.st1{fill:#6698D8;}
</style>
<path class="st0" d="M1832,788c-27.3-9.2-102.5-14.5-253-25c-144.4-10.1-153.4-0.7-264-14c-85.9-10.3-159.5-25.5-159-29
	c0.3-2.2,29.3,4.6,72,0c59.5-6.4,72.5-27.1,122-31c46-3.6,39.7,13.9,94,14c57.2,0.1,70.3-19.3,146-23c24-1.2,20.4,0.9,61,0
	c54.1-1.2,91.8-5.5,108-7c35.8-3.3,88.4-3.8,161,8.6V417.4c-14.7,4.8-46.1,4.8-130-10.4c-62.2-11.2-59-13.8-79-14
	c-56.8-0.5-98.2,20.2-107,6c-4.4-7.1,2.2-18.5,3-20c22.1-38.2,99.5-3.2,231-20c36.2-4.6,63.5-11.5,82-11.8V128
	c-29.8,30.4-89.9,9.5-173-12c-2.6-0.7-151.1-24.5-448-72c-142-22.7-180.4-26.4-231-25c-58.5,1.6-91.8,8.7-161,6
	c-44.5-1.7-166-9.8-167-25H0v201.3c21-10,32.8,9.5,89.5,10.2c58.3,0.8,66.8-19.5,112-13c50.1,7.2,45.1,33.1,89,36
	c45.1,3,64.1-23.3,122-17c16.4,1.8,27.6,5.3,37,8c73.5,21.2,301.1,70,381,24c6.8-3.9,28.6-17.7,52-12c13.6,3.3,15.6,10.3,31,18
	c33.6,16.8,66.6,4.7,68,10c1.1,4.2-18.6,16.4-60,29c-94.2,28.7-142.8,11.7-253,17c-94.5,4.6-92.8,18.8-220,26
	c-63.7,3.6-59-0.2-126,4c-104.1,6.6-156.1,9.9-214,30C38.3,395.9,23.4,420.1,0,409.7V824c17.9-14.8,46.2-7,102,9
	c59.5,17.1,68.5,28.3,105,39c51.8,15.3,93.8,10.5,177,1c64.4-7.3,101.2-18.8,155-2c18.8,5.9,46.3,17.2,45,25
	c-1.6,9.9-49.1,6.5-180,12c-79.7,3.3-94.9,6-105,8c-41.4,8.2-55.1,17.4-88,16c-39.8-1.7-42.6-16.1-79-20c-67.6-7.3-97.3,38.2-126,21
	c-2.1-1.3-4.1-2.8-6-4.6V1080h1920V807.6C1895.6,812.4,1861,797.8,1832,788z M832,667c-1.3,7.7-35.4,7.9-73,8
	c-78.4,0.3-105.4-9.6-165-6c-33.6,2-55.3,7-72,10c-147.1,26.6-370.7-14-370-36c0.5-17.2,137.7-26.4,199-28
	c87.5-2.3,154.7-4.1,228,17c22.5,6.5,44.8,14.9,79,15c44.9,0.1,58.7-14.2,100-10C796.9,641,833.4,658.7,832,667z"/>
<path class="st1" d="M108.5,371.5c57.9-20.1,109.9-23.4,214-30c67-4.2,62.3-0.4,126-4c127.2-7.2,125.5-21.4,220-26
	c110.2-5.3,158.8,11.7,253-17c41.4-12.6,61.1-24.8,60-29c-1.4-5.3-34.4,6.8-68-10c-15.4-7.7-17.4-14.7-31-18
	c-23.4-5.7-45.2,8.1-52,12c-79.9,46-307.5-2.8-381-24c-9.4-2.7-20.6-6.2-37-8c-57.9-6.3-76.9,20-122,17c-43.9-2.9-38.9-28.8-89-36
	c-45.2-6.5-53.7,13.8-112,13C32.8,210.7,21,191.2,0,201.3v208.5C23.4,420.1,38.3,395.9,108.5,371.5z"/>
<path class="st1" d="M907,25c69.2,2.7,102.5-4.4,161-6c50.6-1.4,89,2.3,231,25c296.9,47.5,445.4,71.3,448,72
	c83.1,21.5,143.2,42.4,173,12V0H740C741,15.2,862.5,23.3,907,25z"/>
<path class="st1" d="M758,637c-41.3-4.2-55.1,10.1-100,10c-34.2-0.1-56.5-8.5-79-15c-73.3-21.1-140.5-19.3-228-17
	c-61.3,1.6-198.5,10.8-199,28c-0.7,22,222.9,62.6,370,36c16.7-3,38.4-8,72-10c59.6-3.6,86.6,6.3,165,6c37.6-0.1,71.7-0.3,73-8
	C833.4,658.7,796.9,641,758,637z"/>
<path class="st1" d="M1607,379c-0.8,1.5-7.4,12.9-3,20c8.8,14.2,50.2-6.5,107-6c20,0.2,16.8,2.8,79,14
	c83.9,15.2,115.3,15.1,130,10.4v-70.2c-18.5,0.3-45.8,7.2-82,11.8C1706.5,375.8,1629.1,340.8,1607,379z"/>
<path class="st1" d="M132,912c36.4,3.9,39.2,18.3,79,20c32.9,1.4,46.6-7.8,88-16c10.1-2,25.3-4.7,105-8c130.9-5.5,178.4-2.1,180-12
	c1.3-7.8-26.2-19.1-45-25c-53.8-16.8-90.6-5.3-155,2c-83.2,9.5-125.2,14.3-177-1c-36.5-10.7-45.5-21.9-105-39
	c-55.8-16-84.1-23.8-102-9v104.4c1.9,1.8,3.9,3.3,6,4.6C34.7,950.2,64.4,904.7,132,912z"/>
<path class="st1" d="M1759,673c-16.2,1.5-53.9,5.8-108,7c-40.6,0.9-37-1.2-61,0c-75.7,3.7-88.8,23.1-146,23c-54.3-0.1-48-17.6-94-14
	c-49.5,3.9-62.5,24.6-122,31c-42.7,4.6-71.7-2.2-72,0c-0.5,3.5,73.1,18.7,159,29c110.6,13.3,119.6,3.9,264,14
	c150.5,10.5,225.7,15.8,253,25c29,9.8,63.6,24.4,88,19.6v-126C1847.4,669.2,1794.8,669.7,1759,673z"/>
</svg>
