<?xml version="1.0" encoding="utf-8"?>
<!-- Generator: Adobe Illustrator 21.0.2, SVG Export Plug-In . SVG Version: 6.00 Build 0)  -->
<svg version="1.1" id="Слой_1" xmlns="http://www.w3.org/2000/svg" xmlns:xlink="http://www.w3.org/1999/xlink" x="0px" y="0px"
	 viewBox="0 0 240 330" style="enable-background:new 0 0 240 330;" xml:space="preserve">
<style type="text/css">
	.st0{fill:url(#SVGID_1_);}
	.st1{fill:#E4D61B;}
	.st2{fill:#808184;}
	.st3{fill:#474748;}
	.st4{fill:#58595B;}
	.st5{fill:#1A1A1A;}
	.st6{fill:#FFFFFF;}
</style>
<g>
	<linearGradient id="SVGID_1_" gradientUnits="userSpaceOnUse" x1="123.6374" y1="22.0174" x2="123.6374" y2="140.7091">
		<stop  offset="0" style="stop-color:#FFFFFF"/>
		<stop  offset="1" style="stop-color:#E6E414"/>
	</linearGradient>
	<polygon class="st0" points="207.5,137.9 232.9,131.3 207.5,124.7 231.6,114.2 205.5,111.6 227.6,97.5 201.4,99.1 221,81.7 
		195.4,87.3 212,67.1 187.6,76.6 200.9,54 178.3,67.3 187.9,42.9 167.6,59.5 173.3,33.9 155.8,53.5 157.4,27.3 143.3,49.4 
		140.7,23.3 130.3,47.4 123.6,22 117,47.4 106.6,23.3 104,49.4 89.9,27.3 91.4,53.5 74,33.9 79.7,59.5 59.4,42.9 69,67.3 46.4,54 
		59.6,76.6 35.2,67.1 51.9,87.3 26.3,81.7 45.9,99.1 19.7,97.5 41.8,111.6 15.7,114.2 39.7,124.7 14.4,131.3 39.7,137.9 33.3,140.7 
		214,140.7 	"/>
	<g id="XMLID_162_">
		<circle class="st1" cx="59.1" cy="126.5" r="7.9"/>
		<path class="st2" d="M59.1,134.8c-4.6,0-8.3-3.7-8.3-8.3c0-4.6,3.7-8.3,8.3-8.3s8.3,3.7,8.3,8.3C67.4,131.1,63.7,134.8,59.1,134.8
			z M59.1,118.9c-4.2,0-7.6,3.4-7.6,7.6s3.4,7.6,7.6,7.6c4.2,0,7.6-3.4,7.6-7.6S63.3,118.9,59.1,118.9z"/>
	</g>
	<g id="XMLID_136_">
		<circle class="st1" cx="56" cy="132.7" r="9.3"/>
		<path class="st2" d="M56,142.4c-5.3,0-9.7-4.3-9.7-9.7s4.3-9.7,9.7-9.7s9.7,4.3,9.7,9.7S61.3,142.4,56,142.4z M56,123.8
			c-4.9,0-8.9,4-8.9,8.9c0,4.9,4,8.9,8.9,8.9c4.9,0,8.9-4,8.9-8.9C64.9,127.8,60.9,123.8,56,123.8z"/>
	</g>
	<g id="XMLID_156_">
		<circle class="st1" cx="65.3" cy="132.7" r="9.3"/>
		<path class="st2" d="M65.3,142.4c-5.3,0-9.7-4.3-9.7-9.7s4.3-9.7,9.7-9.7c5.3,0,9.7,4.3,9.7,9.7S70.6,142.4,65.3,142.4z
			 M65.3,123.8c-4.9,0-8.9,4-8.9,8.9c0,4.9,4,8.9,8.9,8.9c4.9,0,8.9-4,8.9-8.9C74.2,127.8,70.2,123.8,65.3,123.8z"/>
	</g>
	<g id="XMLID_161_">
		<circle class="st1" cx="60.1" cy="137.5" r="8.5"/>
		<path class="st2" d="M60.1,146.3c-4.9,0-8.9-4-8.9-8.9c0-4.9,4-8.9,8.9-8.9c4.9,0,8.9,4,8.9,8.9C68.9,142.3,65,146.3,60.1,146.3z
			 M60.1,129.3c-4.5,0-8.1,3.7-8.1,8.1s3.7,8.1,8.1,8.1c4.5,0,8.1-3.7,8.1-8.1S64.6,129.3,60.1,129.3z"/>
	</g>
	<g id="XMLID_194_">
		<circle class="st1" cx="69.6" cy="116" r="7.9"/>
		<path class="st2" d="M69.6,124.3c-4.6,0-8.3-3.7-8.3-8.3s3.7-8.3,8.3-8.3s8.3,3.7,8.3,8.3S74.2,124.3,69.6,124.3z M69.6,108.4
			c-4.2,0-7.6,3.4-7.6,7.6c0,4.2,3.4,7.6,7.6,7.6c4.2,0,7.6-3.4,7.6-7.6C77.2,111.8,73.8,108.4,69.6,108.4z"/>
	</g>
	<g id="XMLID_193_">
		<circle class="st1" cx="66.5" cy="122.2" r="9.3"/>
		<path class="st2" d="M66.5,131.9c-5.3,0-9.7-4.3-9.7-9.7c0-5.3,4.3-9.7,9.7-9.7c5.3,0,9.7,4.3,9.7,9.7
			C76.1,127.5,71.8,131.9,66.5,131.9z M66.5,113.3c-4.9,0-8.9,4-8.9,8.9c0,4.9,4,8.9,8.9,8.9c4.9,0,8.9-4,8.9-8.9
			C75.4,117.3,71.4,113.3,66.5,113.3z"/>
	</g>
	<g id="XMLID_192_">
		<circle class="st1" cx="75.8" cy="122.2" r="9.3"/>
		<path class="st2" d="M75.8,131.9c-5.3,0-9.7-4.3-9.7-9.7c0-5.3,4.3-9.7,9.7-9.7c5.3,0,9.7,4.3,9.7,9.7
			C85.5,127.5,81.1,131.9,75.8,131.9z M75.8,113.3c-4.9,0-8.9,4-8.9,8.9c0,4.9,4,8.9,8.9,8.9c4.9,0,8.9-4,8.9-8.9
			C84.7,117.3,80.7,113.3,75.8,113.3z"/>
	</g>
	<g id="XMLID_198_">
		<circle class="st1" cx="89.3" cy="126.5" r="7.9"/>
		<path class="st2" d="M89.3,134.8c-4.6,0-8.3-3.7-8.3-8.3c0-4.6,3.7-8.3,8.3-8.3c4.6,0,8.3,3.7,8.3,8.3
			C97.6,131.1,93.9,134.8,89.3,134.8z M89.3,118.9c-4.2,0-7.6,3.4-7.6,7.6s3.4,7.6,7.6,7.6c4.2,0,7.6-3.4,7.6-7.6
			S93.5,118.9,89.3,118.9z"/>
	</g>
	<g id="XMLID_197_">
		<circle class="st1" cx="99.8" cy="116" r="7.9"/>
		<path class="st2" d="M99.8,124.3c-4.6,0-8.3-3.7-8.3-8.3s3.7-8.3,8.3-8.3c4.6,0,8.3,3.7,8.3,8.3S104.4,124.3,99.8,124.3z
			 M99.8,108.4c-4.2,0-7.6,3.4-7.6,7.6c0,4.2,3.4,7.6,7.6,7.6c4.2,0,7.6-3.4,7.6-7.6C107.4,111.8,104,108.4,99.8,108.4z"/>
	</g>
	<g id="XMLID_196_">
		<circle class="st1" cx="96.7" cy="122.2" r="9.3"/>
		<path class="st2" d="M96.7,131.9c-5.3,0-9.7-4.3-9.7-9.7c0-5.3,4.3-9.7,9.7-9.7c5.3,0,9.7,4.3,9.7,9.7
			C106.3,127.5,102,131.9,96.7,131.9z M96.7,113.3c-4.9,0-8.9,4-8.9,8.9c0,4.9,4,8.9,8.9,8.9c4.9,0,8.9-4,8.9-8.9
			C105.6,117.3,101.6,113.3,96.7,113.3z"/>
	</g>
	<g id="XMLID_195_">
		<circle class="st1" cx="106" cy="122.2" r="9.3"/>
		<path class="st2" d="M106,131.9c-5.3,0-9.7-4.3-9.7-9.7c0-5.3,4.3-9.7,9.7-9.7c5.3,0,9.7,4.3,9.7,9.7
			C115.6,127.5,111.3,131.9,106,131.9z M106,113.3c-4.9,0-8.9,4-8.9,8.9c0,4.9,4,8.9,8.9,8.9c4.9,0,8.9-4,8.9-8.9
			C114.9,117.3,110.9,113.3,106,113.3z"/>
	</g>
	<g id="XMLID_191_">
		<circle class="st1" cx="83" cy="124.3" r="7.2"/>
		<path class="st2" d="M83,131.9c-4.2,0-7.6-3.4-7.6-7.6c0-4.2,3.4-7.6,7.6-7.6c4.2,0,7.6,3.4,7.6,7.6
			C90.6,128.5,87.2,131.9,83,131.9z M83,117.4c-3.8,0-6.9,3.1-6.9,6.9c0,3.8,3.1,6.9,6.9,6.9c3.8,0,6.9-3.1,6.9-6.9
			C89.9,120.5,86.8,117.4,83,117.4z"/>
	</g>
	<g id="XMLID_166_">
		<circle class="st1" cx="84.9" cy="126.5" r="7.9"/>
		<path class="st2" d="M84.9,134.8c-4.6,0-8.3-3.7-8.3-8.3c0-4.6,3.7-8.3,8.3-8.3c4.6,0,8.3,3.7,8.3,8.3
			C93.3,131.1,89.5,134.8,84.9,134.8z M84.9,118.9c-4.2,0-7.6,3.4-7.6,7.6s3.4,7.6,7.6,7.6c4.2,0,7.6-3.4,7.6-7.6
			S89.1,118.9,84.9,118.9z"/>
	</g>
	<g id="XMLID_165_">
		<circle class="st1" cx="81.8" cy="132.7" r="9.3"/>
		<path class="st2" d="M81.8,142.4c-5.3,0-9.7-4.3-9.7-9.7s4.3-9.7,9.7-9.7c5.3,0,9.7,4.3,9.7,9.7S87.1,142.4,81.8,142.4z
			 M81.8,123.8c-4.9,0-8.9,4-8.9,8.9c0,4.9,4,8.9,8.9,8.9c4.9,0,8.9-4,8.9-8.9C90.7,127.8,86.7,123.8,81.8,123.8z"/>
	</g>
	<g id="XMLID_164_">
		<circle class="st1" cx="91.1" cy="132.7" r="9.3"/>
		<path class="st2" d="M91.1,142.4c-5.3,0-9.7-4.3-9.7-9.7s4.3-9.7,9.7-9.7c5.3,0,9.7,4.3,9.7,9.7S96.4,142.4,91.1,142.4z
			 M91.1,123.8c-4.9,0-8.9,4-8.9,8.9c0,4.9,4,8.9,8.9,8.9c4.9,0,8.9-4,8.9-8.9C100.1,127.8,96,123.8,91.1,123.8z"/>
	</g>
	<g id="XMLID_163_">
		<circle class="st1" cx="90.5" cy="137.5" r="8.5"/>
		<path class="st2" d="M90.5,146.3c-4.9,0-8.9-4-8.9-8.9c0-4.9,4-8.9,8.9-8.9c4.9,0,8.9,4,8.9,8.9C99.4,142.3,95.4,146.3,90.5,146.3
			z M90.5,129.3c-4.5,0-8.1,3.7-8.1,8.1s3.7,8.1,8.1,8.1s8.1-3.7,8.1-8.1S95,129.3,90.5,129.3z"/>
	</g>
	<g id="XMLID_174_">
		<circle class="st1" cx="106.8" cy="126.5" r="7.9"/>
		<path class="st2" d="M106.8,134.8c-4.6,0-8.3-3.7-8.3-8.3c0-4.6,3.7-8.3,8.3-8.3c4.6,0,8.3,3.7,8.3,8.3
			C115.1,131.1,111.4,134.8,106.8,134.8z M106.8,118.9c-4.2,0-7.6,3.4-7.6,7.6s3.4,7.6,7.6,7.6c4.2,0,7.6-3.4,7.6-7.6
			S111,118.9,106.8,118.9z"/>
	</g>
	<g id="XMLID_207_">
		<circle class="st1" cx="83.4" cy="107.6" r="7.9"/>
		<path class="st2" d="M83.4,115.9c-4.6,0-8.3-3.7-8.3-8.3c0-4.6,3.7-8.3,8.3-8.3c4.6,0,8.3,3.7,8.3,8.3
			C91.7,112.2,88,115.9,83.4,115.9z M83.4,100.1c-4.2,0-7.6,3.4-7.6,7.6c0,4.2,3.4,7.6,7.6,7.6c4.2,0,7.6-3.4,7.6-7.6
			C91,103.5,87.6,100.1,83.4,100.1z"/>
	</g>
	<g id="XMLID_206_">
		<circle class="st1" cx="80.3" cy="113.8" r="9.3"/>
		<path class="st2" d="M80.3,123.5c-5.3,0-9.7-4.3-9.7-9.7c0-5.3,4.3-9.7,9.7-9.7c5.3,0,9.7,4.3,9.7,9.7
			C90,119.1,85.6,123.5,80.3,123.5z M80.3,104.9c-4.9,0-8.9,4-8.9,8.9c0,4.9,4,8.9,8.9,8.9c4.9,0,8.9-4,8.9-8.9
			C89.2,108.9,85.2,104.9,80.3,104.9z"/>
	</g>
	<g id="XMLID_205_">
		<circle class="st1" cx="89.6" cy="113.8" r="9.3"/>
		<path class="st2" d="M89.6,123.5c-5.3,0-9.7-4.3-9.7-9.7c0-5.3,4.3-9.7,9.7-9.7s9.7,4.3,9.7,9.7C99.3,119.1,94.9,123.5,89.6,123.5
			z M89.6,104.9c-4.9,0-8.9,4-8.9,8.9c0,4.9,4,8.9,8.9,8.9c4.9,0,8.9-4,8.9-8.9C98.5,108.9,94.5,104.9,89.6,104.9z"/>
	</g>
	<g id="XMLID_210_">
		<circle class="st1" cx="111.5" cy="109.1" r="7.9"/>
		<path class="st2" d="M111.5,117.4c-4.6,0-8.3-3.7-8.3-8.3s3.7-8.3,8.3-8.3s8.3,3.7,8.3,8.3S116,117.4,111.5,117.4z M111.5,101.5
			c-4.2,0-7.6,3.4-7.6,7.6s3.4,7.6,7.6,7.6c4.2,0,7.6-3.4,7.6-7.6S115.6,101.5,111.5,101.5z"/>
	</g>
	<g id="XMLID_209_">
		<circle class="st1" cx="108.3" cy="115.3" r="9.3"/>
		<path class="st2" d="M108.3,125c-5.3,0-9.7-4.3-9.7-9.7c0-5.3,4.3-9.7,9.7-9.7c5.3,0,9.7,4.3,9.7,9.7
			C118,120.6,113.6,125,108.3,125z M108.3,106.4c-4.9,0-8.9,4-8.9,8.9c0,4.9,4,8.9,8.9,8.9s8.9-4,8.9-8.9
			C117.3,110.4,113.2,106.4,108.3,106.4z"/>
	</g>
	<g id="XMLID_208_">
		<circle class="st1" cx="117.6" cy="115.3" r="9.3"/>
		<path class="st2" d="M117.6,125c-5.3,0-9.7-4.3-9.7-9.7c0-5.3,4.3-9.7,9.7-9.7c5.3,0,9.7,4.3,9.7,9.7
			C127.3,120.6,122.9,125,117.6,125z M117.6,106.4c-4.9,0-8.9,4-8.9,8.9c0,4.9,4,8.9,8.9,8.9c4.9,0,8.9-4,8.9-8.9
			C126.6,110.4,122.6,106.4,117.6,106.4z"/>
	</g>
	<g id="XMLID_215_">
		<circle class="st1" cx="129.9" cy="114.1" r="7.9"/>
		<path class="st2" d="M129.9,122.4c-4.6,0-8.3-3.7-8.3-8.3c0-4.6,3.7-8.3,8.3-8.3c4.6,0,8.3,3.7,8.3,8.3
			C138.2,118.7,134.5,122.4,129.9,122.4z M129.9,106.5c-4.2,0-7.6,3.4-7.6,7.6c0,4.2,3.4,7.6,7.6,7.6c4.2,0,7.6-3.4,7.6-7.6
			C137.5,109.9,134.1,106.5,129.9,106.5z"/>
	</g>
	<g id="XMLID_214_">
		<circle class="st1" cx="136" cy="120.3" r="9.3"/>
		<path class="st2" d="M136,129.9c-5.3,0-9.7-4.3-9.7-9.7c0-5.3,4.3-9.7,9.7-9.7c5.3,0,9.7,4.3,9.7,9.7
			C145.7,125.6,141.4,129.9,136,129.9z M136,111.3c-4.9,0-8.9,4-8.9,8.9c0,4.9,4,8.9,8.9,8.9c4.9,0,8.9-4,8.9-8.9
			C145,115.3,141,111.3,136,111.3z"/>
	</g>
	<g id="XMLID_213_">
		<circle class="st1" cx="157.9" cy="115.6" r="7.9"/>
		<path class="st2" d="M157.9,123.9c-4.6,0-8.3-3.7-8.3-8.3c0-4.6,3.7-8.3,8.3-8.3s8.3,3.7,8.3,8.3
			C166.2,120.1,162.5,123.9,157.9,123.9z M157.9,108c-4.2,0-7.6,3.4-7.6,7.6c0,4.2,3.4,7.6,7.6,7.6s7.6-3.4,7.6-7.6
			C165.5,111.4,162.1,108,157.9,108z"/>
	</g>
	<g id="XMLID_212_">
		<circle class="st1" cx="154.7" cy="121.7" r="9.3"/>
		<path class="st2" d="M154.7,131.4c-5.3,0-9.7-4.3-9.7-9.7c0-5.3,4.3-9.7,9.7-9.7s9.7,4.3,9.7,9.7
			C164.4,127.1,160.1,131.4,154.7,131.4z M154.7,112.8c-4.9,0-8.9,4-8.9,8.9c0,4.9,4,8.9,8.9,8.9c4.9,0,8.9-4,8.9-8.9
			C163.7,116.8,159.7,112.8,154.7,112.8z"/>
	</g>
	<g id="XMLID_211_">
		<circle class="st1" cx="164" cy="121.7" r="9.3"/>
		<path class="st2" d="M164,131.4c-5.3,0-9.7-4.3-9.7-9.7c0-5.3,4.3-9.7,9.7-9.7c5.3,0,9.7,4.3,9.7,9.7
			C173.7,127.1,169.4,131.4,164,131.4z M164,112.8c-4.9,0-8.9,4-8.9,8.9c0,4.9,4,8.9,8.9,8.9c4.9,0,8.9-4,8.9-8.9
			C173,116.8,169,112.8,164,112.8z"/>
	</g>
	<g id="XMLID_204_">
		<circle class="st1" cx="90.4" cy="118.2" r="7.9"/>
		<path class="st2" d="M90.4,126.5c-4.6,0-8.3-3.7-8.3-8.3c0-4.6,3.7-8.3,8.3-8.3s8.3,3.7,8.3,8.3C98.7,122.7,95,126.5,90.4,126.5z
			 M90.4,110.6c-4.2,0-7.6,3.4-7.6,7.6c0,4.2,3.4,7.6,7.6,7.6c4.2,0,7.6-3.4,7.6-7.6C98,114,94.6,110.6,90.4,110.6z"/>
	</g>
	<g id="XMLID_173_">
		<circle class="st1" cx="103.7" cy="132.7" r="9.3"/>
		<path class="st2" d="M103.7,142.4c-5.3,0-9.7-4.3-9.7-9.7s4.3-9.7,9.7-9.7c5.3,0,9.7,4.3,9.7,9.7S109,142.4,103.7,142.4z
			 M103.7,123.8c-4.9,0-8.9,4-8.9,8.9c0,4.9,4,8.9,8.9,8.9c4.9,0,8.9-4,8.9-8.9C112.6,127.8,108.6,123.8,103.7,123.8z"/>
	</g>
	<g id="XMLID_172_">
		<circle class="st1" cx="113" cy="132.7" r="9.3"/>
		<path class="st2" d="M113,142.4c-5.3,0-9.7-4.3-9.7-9.7s4.3-9.7,9.7-9.7c5.3,0,9.7,4.3,9.7,9.7S118.3,142.4,113,142.4z M113,123.8
			c-4.9,0-8.9,4-8.9,8.9c0,4.9,4,8.9,8.9,8.9c4.9,0,8.9-4,8.9-8.9C121.9,127.8,117.9,123.8,113,123.8z"/>
	</g>
	<g id="XMLID_171_">
		<circle class="st1" cx="116.2" cy="137.5" r="8.5"/>
		<path class="st2" d="M116.2,146.3c-4.9,0-8.9-4-8.9-8.9c0-4.9,4-8.9,8.9-8.9c4.9,0,8.9,4,8.9,8.9
			C125.1,142.3,121.1,146.3,116.2,146.3z M116.2,129.3c-4.5,0-8.1,3.7-8.1,8.1s3.7,8.1,8.1,8.1c4.5,0,8.1-3.7,8.1-8.1
			S120.7,129.3,116.2,129.3z"/>
	</g>
	<g id="XMLID_170_">
		<circle class="st1" cx="132.6" cy="126.5" r="7.9"/>
		<path class="st2" d="M132.6,134.8c-4.6,0-8.3-3.7-8.3-8.3c0-4.6,3.7-8.3,8.3-8.3c4.6,0,8.3,3.7,8.3,8.3
			C140.9,131.1,137.2,134.8,132.6,134.8z M132.6,118.9c-4.2,0-7.6,3.4-7.6,7.6s3.4,7.6,7.6,7.6c4.2,0,7.6-3.4,7.6-7.6
			S136.8,118.9,132.6,118.9z"/>
	</g>
	<g id="XMLID_169_">
		<circle class="st1" cx="129.5" cy="132.7" r="9.3"/>
		<path class="st2" d="M129.5,142.4c-5.3,0-9.7-4.3-9.7-9.7s4.3-9.7,9.7-9.7s9.7,4.3,9.7,9.7S134.8,142.4,129.5,142.4z M129.5,123.8
			c-4.9,0-8.9,4-8.9,8.9c0,4.9,4,8.9,8.9,8.9c4.9,0,8.9-4,8.9-8.9C138.4,127.8,134.4,123.8,129.5,123.8z"/>
	</g>
	<g id="XMLID_168_">
		<circle class="st1" cx="138.8" cy="132.7" r="9.3"/>
		<path class="st2" d="M138.8,142.4c-5.3,0-9.7-4.3-9.7-9.7s4.3-9.7,9.7-9.7s9.7,4.3,9.7,9.7S144.1,142.4,138.8,142.4z M138.8,123.8
			c-4.9,0-8.9,4-8.9,8.9c0,4.9,4,8.9,8.9,8.9s8.9-4,8.9-8.9C147.7,127.8,143.7,123.8,138.8,123.8z"/>
	</g>
	<g id="XMLID_167_">
		<circle class="st1" cx="146.6" cy="137.5" r="8.5"/>
		<path class="st2" d="M146.6,146.3c-4.9,0-8.9-4-8.9-8.9c0-4.9,4-8.9,8.9-8.9c4.9,0,8.9,4,8.9,8.9
			C155.5,142.3,151.5,146.3,146.6,146.3z M146.6,129.3c-4.5,0-8.1,3.7-8.1,8.1s3.7,8.1,8.1,8.1c4.5,0,8.1-3.7,8.1-8.1
			S151.1,129.3,146.6,129.3z"/>
	</g>
	<g id="XMLID_190_">
		<circle class="st1" cx="112.4" cy="126.5" r="7.9"/>
		<path class="st2" d="M112.4,134.8c-4.6,0-8.3-3.7-8.3-8.3c0-4.6,3.7-8.3,8.3-8.3c4.6,0,8.3,3.7,8.3,8.3
			C120.7,131.1,117,134.8,112.4,134.8z M112.4,118.9c-4.2,0-7.6,3.4-7.6,7.6s3.4,7.6,7.6,7.6c4.2,0,7.6-3.4,7.6-7.6
			S116.6,118.9,112.4,118.9z"/>
	</g>
	<g id="XMLID_203_">
		<circle class="st1" cx="125.5" cy="116" r="7.9"/>
		<path class="st2" d="M125.5,124.3c-4.6,0-8.3-3.7-8.3-8.3s3.7-8.3,8.3-8.3c4.6,0,8.3,3.7,8.3,8.3S130,124.3,125.5,124.3z
			 M125.5,108.4c-4.2,0-7.6,3.4-7.6,7.6c0,4.2,3.4,7.6,7.6,7.6s7.6-3.4,7.6-7.6C133,111.8,129.6,108.4,125.5,108.4z"/>
	</g>
	<g id="XMLID_202_">
		<circle class="st1" cx="122.3" cy="122.2" r="9.3"/>
		<path class="st2" d="M122.3,131.9c-5.3,0-9.7-4.3-9.7-9.7c0-5.3,4.3-9.7,9.7-9.7c5.3,0,9.7,4.3,9.7,9.7
			C132,127.5,127.6,131.9,122.3,131.9z M122.3,113.3c-4.9,0-8.9,4-8.9,8.9c0,4.9,4,8.9,8.9,8.9c4.9,0,8.9-4,8.9-8.9
			C131.3,117.3,127.2,113.3,122.3,113.3z"/>
	</g>
	<g id="XMLID_201_">
		<circle class="st1" cx="131.6" cy="122.2" r="9.3"/>
		<path class="st2" d="M131.6,131.9c-5.3,0-9.7-4.3-9.7-9.7c0-5.3,4.3-9.7,9.7-9.7c5.3,0,9.7,4.3,9.7,9.7
			C141.3,127.5,136.9,131.9,131.6,131.9z M131.6,113.3c-4.9,0-8.9,4-8.9,8.9c0,4.9,4,8.9,8.9,8.9c4.9,0,8.9-4,8.9-8.9
			C140.6,117.3,136.5,113.3,131.6,113.3z"/>
	</g>
	<g id="XMLID_200_">
		<circle class="st1" cx="132.4" cy="126.5" r="7.9"/>
		<path class="st2" d="M132.4,134.8c-4.6,0-8.3-3.7-8.3-8.3c0-4.6,3.7-8.3,8.3-8.3c4.6,0,8.3,3.7,8.3,8.3
			C140.7,131.1,137,134.8,132.4,134.8z M132.4,118.9c-4.2,0-7.6,3.4-7.6,7.6s3.4,7.6,7.6,7.6s7.6-3.4,7.6-7.6
			S136.6,118.9,132.4,118.9z"/>
	</g>
	<g id="XMLID_199_">
		<circle class="st1" cx="138" cy="126.5" r="7.9"/>
		<path class="st2" d="M138,134.8c-4.6,0-8.3-3.7-8.3-8.3c0-4.6,3.7-8.3,8.3-8.3s8.3,3.7,8.3,8.3C146.3,131.1,142.6,134.8,138,134.8
			z M138,118.9c-4.2,0-7.6,3.4-7.6,7.6s3.4,7.6,7.6,7.6s7.6-3.4,7.6-7.6S142.2,118.9,138,118.9z"/>
	</g>
	<g id="XMLID_189_">
		<circle class="st1" cx="109.3" cy="132.7" r="9.3"/>
		<path class="st2" d="M109.3,142.4c-5.3,0-9.7-4.3-9.7-9.7s4.3-9.7,9.7-9.7c5.3,0,9.7,4.3,9.7,9.7S114.6,142.4,109.3,142.4z
			 M109.3,123.8c-4.9,0-8.9,4-8.9,8.9c0,4.9,4,8.9,8.9,8.9c4.9,0,8.9-4,8.9-8.9C118.2,127.8,114.2,123.8,109.3,123.8z"/>
	</g>
	<g id="XMLID_188_">
		<circle class="st1" cx="118.6" cy="132.7" r="9.3"/>
		<path class="st2" d="M118.6,142.4c-5.3,0-9.7-4.3-9.7-9.7s4.3-9.7,9.7-9.7c5.3,0,9.7,4.3,9.7,9.7S123.9,142.4,118.6,142.4z
			 M118.6,123.8c-4.9,0-8.9,4-8.9,8.9c0,4.9,4,8.9,8.9,8.9s8.9-4,8.9-8.9C127.5,127.8,123.5,123.8,118.6,123.8z"/>
	</g>
	<g id="XMLID_187_">
		<circle class="st1" cx="122.8" cy="137.5" r="8.5"/>
		<path class="st2" d="M122.8,146.3c-4.9,0-8.9-4-8.9-8.9c0-4.9,4-8.9,8.9-8.9s8.9,4,8.9,8.9C131.7,142.3,127.7,146.3,122.8,146.3z
			 M122.8,129.3c-4.5,0-8.1,3.7-8.1,8.1s3.7,8.1,8.1,8.1c4.5,0,8.1-3.7,8.1-8.1S127.3,129.3,122.8,129.3z"/>
	</g>
	<g id="XMLID_186_">
		<circle class="st1" cx="138.2" cy="126.5" r="7.9"/>
		<path class="st2" d="M138.2,134.8c-4.6,0-8.3-3.7-8.3-8.3c0-4.6,3.7-8.3,8.3-8.3c4.6,0,8.3,3.7,8.3,8.3
			C146.5,131.1,142.8,134.8,138.2,134.8z M138.2,118.9c-4.2,0-7.6,3.4-7.6,7.6s3.4,7.6,7.6,7.6c4.2,0,7.6-3.4,7.6-7.6
			S142.4,118.9,138.2,118.9z"/>
	</g>
	<g id="XMLID_185_">
		<circle class="st1" cx="135.1" cy="132.7" r="9.3"/>
		<path class="st2" d="M135.1,142.4c-5.3,0-9.7-4.3-9.7-9.7s4.3-9.7,9.7-9.7c5.3,0,9.7,4.3,9.7,9.7S140.4,142.4,135.1,142.4z
			 M135.1,123.8c-4.9,0-8.9,4-8.9,8.9c0,4.9,4,8.9,8.9,8.9c4.9,0,8.9-4,8.9-8.9C144,127.8,140,123.8,135.1,123.8z"/>
	</g>
	<g id="XMLID_184_">
		<circle class="st1" cx="144.4" cy="132.7" r="9.3"/>
		<path class="st2" d="M144.4,142.4c-5.3,0-9.7-4.3-9.7-9.7s4.3-9.7,9.7-9.7s9.7,4.3,9.7,9.7S149.7,142.4,144.4,142.4z M144.4,123.8
			c-4.9,0-8.9,4-8.9,8.9c0,4.9,4,8.9,8.9,8.9s8.9-4,8.9-8.9C153.3,127.8,149.3,123.8,144.4,123.8z"/>
	</g>
	<g id="XMLID_183_">
		<circle class="st1" cx="153.2" cy="137.5" r="8.5"/>
		<path class="st2" d="M153.2,146.3c-4.9,0-8.9-4-8.9-8.9c0-4.9,4-8.9,8.9-8.9s8.9,4,8.9,8.9C162.1,142.3,158.1,146.3,153.2,146.3z
			 M153.2,129.3c-4.5,0-8.1,3.7-8.1,8.1s3.7,8.1,8.1,8.1c4.5,0,8.1-3.7,8.1-8.1S157.7,129.3,153.2,129.3z"/>
	</g>
	<g id="XMLID_182_">
		<circle class="st1" cx="160.1" cy="126.5" r="7.9"/>
		<path class="st2" d="M160.1,134.8c-4.6,0-8.3-3.7-8.3-8.3c0-4.6,3.7-8.3,8.3-8.3s8.3,3.7,8.3,8.3
			C168.4,131.1,164.7,134.8,160.1,134.8z M160.1,118.9c-4.2,0-7.6,3.4-7.6,7.6s3.4,7.6,7.6,7.6s7.6-3.4,7.6-7.6
			S164.3,118.9,160.1,118.9z"/>
	</g>
	<g id="XMLID_220_">
		<circle class="st1" cx="150" cy="120.9" r="9.3"/>
		<path class="st2" d="M150,130.6c-5.3,0-9.7-4.3-9.7-9.7c0-5.3,4.3-9.7,9.7-9.7c5.3,0,9.7,4.3,9.7,9.7
			C159.7,126.3,155.4,130.6,150,130.6z M150,112c-4.9,0-8.9,4-8.9,8.9c0,4.9,4,8.9,8.9,8.9c4.9,0,8.9-4,8.9-8.9
			C159,116,155,112,150,112z"/>
	</g>
	<g id="XMLID_219_">
		<circle class="st1" cx="171.9" cy="116.3" r="7.9"/>
		<path class="st2" d="M171.9,124.6c-4.6,0-8.3-3.7-8.3-8.3c0-4.6,3.7-8.3,8.3-8.3s8.3,3.7,8.3,8.3
			C180.2,120.8,176.5,124.6,171.9,124.6z M171.9,108.7c-4.2,0-7.6,3.4-7.6,7.6c0,4.2,3.4,7.6,7.6,7.6s7.6-3.4,7.6-7.6
			C179.5,112.1,176.1,108.7,171.9,108.7z"/>
	</g>
	<g id="XMLID_218_">
		<circle class="st1" cx="168.8" cy="122.4" r="9.3"/>
		<path class="st2" d="M168.8,132.1c-5.3,0-9.7-4.3-9.7-9.7c0-5.3,4.3-9.7,9.7-9.7s9.7,4.3,9.7,9.7
			C178.4,127.8,174.1,132.1,168.8,132.1z M168.8,113.5c-4.9,0-8.9,4-8.9,8.9c0,4.9,4,8.9,8.9,8.9c4.9,0,8.9-4,8.9-8.9
			C177.7,117.5,173.7,113.5,168.8,113.5z"/>
	</g>
	<g id="XMLID_217_">
		<circle class="st1" cx="178.1" cy="122.4" r="9.3"/>
		<path class="st2" d="M178.1,132.1c-5.3,0-9.7-4.3-9.7-9.7c0-5.3,4.3-9.7,9.7-9.7c5.3,0,9.7,4.3,9.7,9.7
			C187.7,127.8,183.4,132.1,178.1,132.1z M178.1,113.5c-4.9,0-8.9,4-8.9,8.9c0,4.9,4,8.9,8.9,8.9c4.9,0,8.9-4,8.9-8.9
			C187,117.5,183,113.5,178.1,113.5z"/>
	</g>
	<g id="XMLID_216_">
		<circle class="st1" cx="174.1" cy="127.2" r="7.9"/>
		<path class="st2" d="M174.1,135.5c-4.6,0-8.3-3.7-8.3-8.3c0-4.6,3.7-8.3,8.3-8.3c4.6,0,8.3,3.7,8.3,8.3
			C182.4,131.8,178.7,135.5,174.1,135.5z M174.1,119.6c-4.2,0-7.6,3.4-7.6,7.6c0,4.2,3.4,7.6,7.6,7.6s7.6-3.4,7.6-7.6
			C181.7,123,178.3,119.6,174.1,119.6z"/>
	</g>
	<g id="XMLID_181_">
		<circle class="st1" cx="156.9" cy="132.7" r="9.3"/>
		<path class="st2" d="M156.9,142.4c-5.3,0-9.7-4.3-9.7-9.7s4.3-9.7,9.7-9.7s9.7,4.3,9.7,9.7S162.3,142.4,156.9,142.4z M156.9,123.8
			c-4.9,0-8.9,4-8.9,8.9c0,4.9,4,8.9,8.9,8.9c4.9,0,8.9-4,8.9-8.9C165.9,127.8,161.9,123.8,156.9,123.8z"/>
	</g>
	<g id="XMLID_180_">
		<circle class="st1" cx="166.2" cy="132.7" r="9.3"/>
		<path class="st2" d="M166.2,142.4c-5.3,0-9.7-4.3-9.7-9.7s4.3-9.7,9.7-9.7c5.3,0,9.7,4.3,9.7,9.7S171.6,142.4,166.2,142.4z
			 M166.2,123.8c-4.9,0-8.9,4-8.9,8.9c0,4.9,4,8.9,8.9,8.9c4.9,0,8.9-4,8.9-8.9C175.2,127.8,171.2,123.8,166.2,123.8z"/>
	</g>
	<g id="XMLID_179_">
		<circle class="st1" cx="179" cy="137.5" r="8.5"/>
		<path class="st2" d="M179,146.3c-4.9,0-8.9-4-8.9-8.9c0-4.9,4-8.9,8.9-8.9s8.9,4,8.9,8.9C187.8,142.3,183.9,146.3,179,146.3z
			 M179,129.3c-4.5,0-8.1,3.7-8.1,8.1s3.7,8.1,8.1,8.1s8.1-3.7,8.1-8.1S183.5,129.3,179,129.3z"/>
	</g>
	<g id="XMLID_178_">
		<circle class="st1" cx="185.9" cy="126.5" r="7.9"/>
		<path class="st2" d="M185.9,134.8c-4.6,0-8.3-3.7-8.3-8.3c0-4.6,3.7-8.3,8.3-8.3c4.6,0,8.3,3.7,8.3,8.3
			C194.2,131.1,190.5,134.8,185.9,134.8z M185.9,118.9c-4.2,0-7.6,3.4-7.6,7.6s3.4,7.6,7.6,7.6s7.6-3.4,7.6-7.6
			S190.1,118.9,185.9,118.9z"/>
	</g>
	<g id="XMLID_39_">
		<circle class="st1" cx="74.4" cy="108.8" r="7.9"/>
		<path class="st2" d="M74.4,117.1c-4.6,0-8.3-3.7-8.3-8.3s3.7-8.3,8.3-8.3s8.3,3.7,8.3,8.3S79,117.1,74.4,117.1z M74.4,101.2
			c-4.2,0-7.6,3.4-7.6,7.6c0,4.2,3.4,7.6,7.6,7.6c4.2,0,7.6-3.4,7.6-7.6C82,104.6,78.6,101.2,74.4,101.2z"/>
	</g>
	<g id="XMLID_38_">
		<circle class="st1" cx="84.9" cy="98.3" r="7.9"/>
		<path class="st2" d="M84.9,106.6c-4.6,0-8.3-3.7-8.3-8.3c0-4.6,3.7-8.3,8.3-8.3c4.6,0,8.3,3.7,8.3,8.3
			C93.2,102.9,89.5,106.6,84.9,106.6z M84.9,90.7c-4.2,0-7.6,3.4-7.6,7.6c0,4.2,3.4,7.6,7.6,7.6c4.2,0,7.6-3.4,7.6-7.6
			C92.5,94.1,89.1,90.7,84.9,90.7z"/>
	</g>
	<g id="XMLID_37_">
		<circle class="st1" cx="81.8" cy="104.5" r="9.3"/>
		<path class="st2" d="M81.8,114.1c-5.3,0-9.7-4.3-9.7-9.7c0-5.3,4.3-9.7,9.7-9.7c5.3,0,9.7,4.3,9.7,9.7
			C91.4,109.8,87.1,114.1,81.8,114.1z M81.8,95.5c-4.9,0-8.9,4-8.9,8.9c0,4.9,4,8.9,8.9,8.9c4.9,0,8.9-4,8.9-8.9
			C90.7,99.5,86.7,95.5,81.8,95.5z"/>
	</g>
	<g id="XMLID_36_">
		<circle class="st1" cx="91.1" cy="104.5" r="9.3"/>
		<path class="st2" d="M91.1,114.1c-5.3,0-9.7-4.3-9.7-9.7c0-5.3,4.3-9.7,9.7-9.7c5.3,0,9.7,4.3,9.7,9.7
			C100.8,109.8,96.4,114.1,91.1,114.1z M91.1,95.5c-4.9,0-8.9,4-8.9,8.9c0,4.9,4,8.9,8.9,8.9c4.9,0,8.9-4,8.9-8.9
			C100,99.5,96,95.5,91.1,95.5z"/>
	</g>
	<g id="XMLID_35_">
		<circle class="st1" cx="104.6" cy="108.8" r="7.9"/>
		<path class="st2" d="M104.6,117.1c-4.6,0-8.3-3.7-8.3-8.3s3.7-8.3,8.3-8.3c4.6,0,8.3,3.7,8.3,8.3S109.2,117.1,104.6,117.1z
			 M104.6,101.2c-4.2,0-7.6,3.4-7.6,7.6c0,4.2,3.4,7.6,7.6,7.6c4.2,0,7.6-3.4,7.6-7.6C112.2,104.6,108.8,101.2,104.6,101.2z"/>
	</g>
	<g id="XMLID_34_">
		<circle class="st1" cx="115.1" cy="98.3" r="7.9"/>
		<path class="st2" d="M115.1,106.6c-4.6,0-8.3-3.7-8.3-8.3c0-4.6,3.7-8.3,8.3-8.3s8.3,3.7,8.3,8.3
			C123.4,102.9,119.7,106.6,115.1,106.6z M115.1,90.7c-4.2,0-7.6,3.4-7.6,7.6c0,4.2,3.4,7.6,7.6,7.6c4.2,0,7.6-3.4,7.6-7.6
			C122.7,94.1,119.3,90.7,115.1,90.7z"/>
	</g>
	<g id="XMLID_33_">
		<circle class="st1" cx="112" cy="104.5" r="9.3"/>
		<path class="st2" d="M112,114.1c-5.3,0-9.7-4.3-9.7-9.7c0-5.3,4.3-9.7,9.7-9.7c5.3,0,9.7,4.3,9.7,9.7
			C121.6,109.8,117.3,114.1,112,114.1z M112,95.5c-4.9,0-8.9,4-8.9,8.9c0,4.9,4,8.9,8.9,8.9s8.9-4,8.9-8.9
			C120.9,99.5,116.9,95.5,112,95.5z"/>
	</g>
	<g id="XMLID_32_">
		<circle class="st1" cx="121.3" cy="104.5" r="9.3"/>
		<path class="st2" d="M121.3,114.1c-5.3,0-9.7-4.3-9.7-9.7c0-5.3,4.3-9.7,9.7-9.7c5.3,0,9.7,4.3,9.7,9.7
			C130.9,109.8,126.6,114.1,121.3,114.1z M121.3,95.5c-4.9,0-8.9,4-8.9,8.9c0,4.9,4,8.9,8.9,8.9c4.9,0,8.9-4,8.9-8.9
			C130.2,99.5,126.2,95.5,121.3,95.5z"/>
	</g>
	<g id="XMLID_31_">
		<circle class="st1" cx="98.3" cy="106.5" r="7.2"/>
		<path class="st2" d="M98.3,114.1c-4.2,0-7.6-3.4-7.6-7.6c0-4.2,3.4-7.6,7.6-7.6s7.6,3.4,7.6,7.6
			C105.9,110.7,102.5,114.1,98.3,114.1z M98.3,99.7c-3.8,0-6.9,3.1-6.9,6.9c0,3.8,3.1,6.9,6.9,6.9s6.9-3.1,6.9-6.9
			C105.2,102.8,102.1,99.7,98.3,99.7z"/>
	</g>
	<g id="XMLID_30_">
		<circle class="st1" cx="100.2" cy="108.8" r="7.9"/>
		<path class="st2" d="M100.2,117.1c-4.6,0-8.3-3.7-8.3-8.3s3.7-8.3,8.3-8.3s8.3,3.7,8.3,8.3S104.8,117.1,100.2,117.1z M100.2,101.2
			c-4.2,0-7.6,3.4-7.6,7.6c0,4.2,3.4,7.6,7.6,7.6c4.2,0,7.6-3.4,7.6-7.6C107.8,104.6,104.4,101.2,100.2,101.2z"/>
	</g>
	<g id="XMLID_29_">
		<circle class="st1" cx="122.1" cy="108.8" r="7.9"/>
		<path class="st2" d="M122.1,117.1c-4.6,0-8.3-3.7-8.3-8.3s3.7-8.3,8.3-8.3c4.6,0,8.3,3.7,8.3,8.3S126.7,117.1,122.1,117.1z
			 M122.1,101.2c-4.2,0-7.6,3.4-7.6,7.6c0,4.2,3.4,7.6,7.6,7.6c4.2,0,7.6-3.4,7.6-7.6C129.7,104.6,126.3,101.2,122.1,101.2z"/>
	</g>
	<g id="XMLID_28_">
		<circle class="st1" cx="98.7" cy="89.9" r="7.9"/>
		<path class="st2" d="M98.7,98.2c-4.6,0-8.3-3.7-8.3-8.3s3.7-8.3,8.3-8.3c4.6,0,8.3,3.7,8.3,8.3S103.3,98.2,98.7,98.2z M98.7,82.3
			c-4.2,0-7.6,3.4-7.6,7.6c0,4.2,3.4,7.6,7.6,7.6c4.2,0,7.6-3.4,7.6-7.6C106.3,85.7,102.9,82.3,98.7,82.3z"/>
	</g>
	<g id="XMLID_27_">
		<circle class="st1" cx="95.6" cy="96.1" r="9.3"/>
		<path class="st2" d="M95.6,105.7c-5.3,0-9.7-4.3-9.7-9.7c0-5.3,4.3-9.7,9.7-9.7c5.3,0,9.7,4.3,9.7,9.7
			C105.3,101.4,100.9,105.7,95.6,105.7z M95.6,87.1c-4.9,0-8.9,4-8.9,8.9c0,4.9,4,8.9,8.9,8.9c4.9,0,8.9-4,8.9-8.9
			C104.5,91.1,100.5,87.1,95.6,87.1z"/>
	</g>
	<g id="XMLID_26_">
		<circle class="st1" cx="104.9" cy="96.1" r="9.3"/>
		<path class="st2" d="M104.9,105.7c-5.3,0-9.7-4.3-9.7-9.7c0-5.3,4.3-9.7,9.7-9.7c5.3,0,9.7,4.3,9.7,9.7
			C114.6,101.4,110.2,105.7,104.9,105.7z M104.9,87.1c-4.9,0-8.9,4-8.9,8.9c0,4.9,4,8.9,8.9,8.9c4.9,0,8.9-4,8.9-8.9
			C113.8,91.1,109.8,87.1,104.9,87.1z"/>
	</g>
	<g id="XMLID_25_">
		<circle class="st1" cx="126.8" cy="91.4" r="7.9"/>
		<path class="st2" d="M126.8,99.7c-4.6,0-8.3-3.7-8.3-8.3c0-4.6,3.7-8.3,8.3-8.3s8.3,3.7,8.3,8.3C135.1,96,131.3,99.7,126.8,99.7z
			 M126.8,83.8c-4.2,0-7.6,3.4-7.6,7.6c0,4.2,3.4,7.6,7.6,7.6s7.6-3.4,7.6-7.6C134.3,87.2,130.9,83.8,126.8,83.8z"/>
	</g>
	<g id="XMLID_24_">
		<circle class="st1" cx="123.6" cy="97.6" r="9.3"/>
		<path class="st2" d="M123.6,107.2c-5.3,0-9.7-4.3-9.7-9.7c0-5.3,4.3-9.7,9.7-9.7s9.7,4.3,9.7,9.7
			C133.3,102.9,128.9,107.2,123.6,107.2z M123.6,88.6c-4.9,0-8.9,4-8.9,8.9c0,4.9,4,8.9,8.9,8.9c4.9,0,8.9-4,8.9-8.9
			C132.6,92.6,128.5,88.6,123.6,88.6z"/>
	</g>
	<g id="XMLID_23_">
		<circle class="st1" cx="132.9" cy="97.6" r="9.3"/>
		<path class="st2" d="M132.9,107.2c-5.3,0-9.7-4.3-9.7-9.7c0-5.3,4.3-9.7,9.7-9.7s9.7,4.3,9.7,9.7
			C142.6,102.9,138.2,107.2,132.9,107.2z M132.9,88.6c-4.9,0-8.9,4-8.9,8.9c0,4.9,4,8.9,8.9,8.9c4.9,0,8.9-4,8.9-8.9
			C141.9,92.6,137.9,88.6,132.9,88.6z"/>
	</g>
	<g id="XMLID_22_">
		<circle class="st1" cx="145.2" cy="96.3" r="7.9"/>
		<path class="st2" d="M145.2,104.6c-4.6,0-8.3-3.7-8.3-8.3s3.7-8.3,8.3-8.3c4.6,0,8.3,3.7,8.3,8.3S149.8,104.6,145.2,104.6z
			 M145.2,88.8c-4.2,0-7.6,3.4-7.6,7.6c0,4.2,3.4,7.6,7.6,7.6c4.2,0,7.6-3.4,7.6-7.6C152.8,92.2,149.4,88.8,145.2,88.8z"/>
	</g>
	<g id="XMLID_21_">
		<circle class="st1" cx="151.3" cy="102.5" r="9.3"/>
		<path class="st2" d="M151.3,112.2c-5.3,0-9.7-4.3-9.7-9.7c0-5.3,4.3-9.7,9.7-9.7s9.7,4.3,9.7,9.7
			C161,107.8,156.7,112.2,151.3,112.2z M151.3,93.6c-4.9,0-8.9,4-8.9,8.9c0,4.9,4,8.9,8.9,8.9c4.9,0,8.9-4,8.9-8.9
			C160.3,97.6,156.3,93.6,151.3,93.6z"/>
	</g>
	<g id="XMLID_19_">
		<circle class="st1" cx="170" cy="104" r="9.3"/>
		<path class="st2" d="M170,113.7c-5.3,0-9.7-4.3-9.7-9.7c0-5.3,4.3-9.7,9.7-9.7c5.3,0,9.7,4.3,9.7,9.7
			C179.7,109.3,175.4,113.7,170,113.7z M170,95.1c-4.9,0-8.9,4-8.9,8.9c0,4.9,4,8.9,8.9,8.9c4.9,0,8.9-4,8.9-8.9
			C179,99.1,175,95.1,170,95.1z"/>
	</g>
	<g id="XMLID_17_">
		<circle class="st1" cx="105.7" cy="100.4" r="7.9"/>
		<path class="st2" d="M105.7,108.7c-4.6,0-8.3-3.7-8.3-8.3s3.7-8.3,8.3-8.3c4.6,0,8.3,3.7,8.3,8.3S110.3,108.7,105.7,108.7z
			 M105.7,92.8c-4.2,0-7.6,3.4-7.6,7.6c0,4.2,3.4,7.6,7.6,7.6c4.2,0,7.6-3.4,7.6-7.6C113.3,96.2,109.9,92.8,105.7,92.8z"/>
	</g>
	<g id="XMLID_16_">
		<circle class="st1" cx="147.9" cy="108.8" r="7.9"/>
		<path class="st2" d="M147.9,117.1c-4.6,0-8.3-3.7-8.3-8.3s3.7-8.3,8.3-8.3c4.6,0,8.3,3.7,8.3,8.3S152.5,117.1,147.9,117.1z
			 M147.9,101.2c-4.2,0-7.6,3.4-7.6,7.6c0,4.2,3.4,7.6,7.6,7.6s7.6-3.4,7.6-7.6C155.5,104.6,152.1,101.2,147.9,101.2z"/>
	</g>
	<g id="XMLID_15_">
		<circle class="st1" cx="127.7" cy="108.8" r="7.9"/>
		<path class="st2" d="M127.7,117.1c-4.6,0-8.3-3.7-8.3-8.3s3.7-8.3,8.3-8.3c4.6,0,8.3,3.7,8.3,8.3S132.3,117.1,127.7,117.1z
			 M127.7,101.2c-4.2,0-7.6,3.4-7.6,7.6c0,4.2,3.4,7.6,7.6,7.6c4.2,0,7.6-3.4,7.6-7.6C135.3,104.6,131.9,101.2,127.7,101.2z"/>
	</g>
	<g id="XMLID_14_">
		<circle class="st1" cx="140.8" cy="98.3" r="7.9"/>
		<path class="st2" d="M140.8,106.6c-4.6,0-8.3-3.7-8.3-8.3c0-4.6,3.7-8.3,8.3-8.3c4.6,0,8.3,3.7,8.3,8.3
			C149.1,102.9,145.3,106.6,140.8,106.6z M140.8,90.7c-4.2,0-7.6,3.4-7.6,7.6c0,4.2,3.4,7.6,7.6,7.6c4.2,0,7.6-3.4,7.6-7.6
			C148.3,94.1,144.9,90.7,140.8,90.7z"/>
	</g>
	<g id="XMLID_13_">
		<circle class="st1" cx="137.6" cy="104.5" r="9.3"/>
		<path class="st2" d="M137.6,114.1c-5.3,0-9.7-4.3-9.7-9.7c0-5.3,4.3-9.7,9.7-9.7c5.3,0,9.7,4.3,9.7,9.7
			C147.3,109.8,142.9,114.1,137.6,114.1z M137.6,95.5c-4.9,0-8.9,4-8.9,8.9c0,4.9,4,8.9,8.9,8.9c4.9,0,8.9-4,8.9-8.9
			C146.6,99.5,142.5,95.5,137.6,95.5z"/>
	</g>
	<g id="XMLID_12_">
		<circle class="st1" cx="146.9" cy="104.5" r="9.3"/>
		<path class="st2" d="M146.9,114.1c-5.3,0-9.7-4.3-9.7-9.7c0-5.3,4.3-9.7,9.7-9.7c5.3,0,9.7,4.3,9.7,9.7
			C156.6,109.8,152.2,114.1,146.9,114.1z M146.9,95.5c-4.9,0-8.9,4-8.9,8.9c0,4.9,4,8.9,8.9,8.9c4.9,0,8.9-4,8.9-8.9
			C155.9,99.5,151.8,95.5,146.9,95.5z"/>
	</g>
	<g id="XMLID_11_">
		<circle class="st1" cx="147.7" cy="108.8" r="7.9"/>
		<path class="st2" d="M147.7,117.1c-4.6,0-8.3-3.7-8.3-8.3s3.7-8.3,8.3-8.3c4.6,0,8.3,3.7,8.3,8.3S152.3,117.1,147.7,117.1z
			 M147.7,101.2c-4.2,0-7.6,3.4-7.6,7.6c0,4.2,3.4,7.6,7.6,7.6s7.6-3.4,7.6-7.6C155.3,104.6,151.9,101.2,147.7,101.2z"/>
	</g>
	<g id="XMLID_10_">
		<circle class="st1" cx="153.3" cy="108.8" r="7.9"/>
		<path class="st2" d="M153.3,117.1c-4.6,0-8.3-3.7-8.3-8.3s3.7-8.3,8.3-8.3c4.6,0,8.3,3.7,8.3,8.3S157.9,117.1,153.3,117.1z
			 M153.3,101.2c-4.2,0-7.6,3.4-7.6,7.6c0,4.2,3.4,7.6,7.6,7.6s7.6-3.4,7.6-7.6C160.9,104.6,157.5,101.2,153.3,101.2z"/>
	</g>
	<g id="XMLID_9_">
		<circle class="st1" cx="153.5" cy="108.8" r="7.9"/>
		<path class="st2" d="M153.5,117.1c-4.6,0-8.3-3.7-8.3-8.3s3.7-8.3,8.3-8.3c4.6,0,8.3,3.7,8.3,8.3S158.1,117.1,153.5,117.1z
			 M153.5,101.2c-4.2,0-7.6,3.4-7.6,7.6c0,4.2,3.4,7.6,7.6,7.6c4.2,0,7.6-3.4,7.6-7.6C161.1,104.6,157.7,101.2,153.5,101.2z"/>
	</g>
	<g id="XMLID_8_">
		<circle class="st1" cx="175.4" cy="108.8" r="7.9"/>
		<path class="st2" d="M175.4,117.1c-4.6,0-8.3-3.7-8.3-8.3s3.7-8.3,8.3-8.3s8.3,3.7,8.3,8.3S180,117.1,175.4,117.1z M175.4,101.2
			c-4.2,0-7.6,3.4-7.6,7.6c0,4.2,3.4,7.6,7.6,7.6s7.6-3.4,7.6-7.6C183,104.6,179.6,101.2,175.4,101.2z"/>
	</g>
	<g id="XMLID_7_">
		<circle class="st1" cx="165.3" cy="103.2" r="9.3"/>
		<path class="st2" d="M165.3,112.9c-5.3,0-9.7-4.3-9.7-9.7c0-5.3,4.3-9.7,9.7-9.7c5.3,0,9.7,4.3,9.7,9.7
			C175,108.5,170.7,112.9,165.3,112.9z M165.3,94.3c-4.9,0-8.9,4-8.9,8.9c0,4.9,4,8.9,8.9,8.9c4.9,0,8.9-4,8.9-8.9
			C174.3,98.3,170.3,94.3,165.3,94.3z"/>
	</g>
	<g id="XMLID_54_">
		<circle class="st1" cx="115.6" cy="97" r="7.9"/>
		<path class="st2" d="M115.6,105.3c-4.6,0-8.3-3.7-8.3-8.3s3.7-8.3,8.3-8.3c4.6,0,8.3,3.7,8.3,8.3S120.2,105.3,115.6,105.3z
			 M115.6,89.4c-4.2,0-7.6,3.4-7.6,7.6c0,4.2,3.4,7.6,7.6,7.6c4.2,0,7.6-3.4,7.6-7.6C123.2,92.8,119.8,89.4,115.6,89.4z"/>
	</g>
	<g id="XMLID_53_">
		<circle class="st1" cx="143.6" cy="98.5" r="7.9"/>
		<path class="st2" d="M143.6,106.8c-4.6,0-8.3-3.7-8.3-8.3c0-4.6,3.7-8.3,8.3-8.3s8.3,3.7,8.3,8.3
			C151.9,103.1,148.2,106.8,143.6,106.8z M143.6,90.9c-4.2,0-7.6,3.4-7.6,7.6c0,4.2,3.4,7.6,7.6,7.6s7.6-3.4,7.6-7.6
			C151.2,94.3,147.8,90.9,143.6,90.9z"/>
	</g>
	<g id="XMLID_52_">
		<circle class="st1" cx="111.2" cy="99" r="7.9"/>
		<path class="st2" d="M111.2,107.3c-4.6,0-8.3-3.7-8.3-8.3c0-4.6,3.7-8.3,8.3-8.3s8.3,3.7,8.3,8.3
			C119.5,103.6,115.8,107.3,111.2,107.3z M111.2,91.4c-4.2,0-7.6,3.4-7.6,7.6c0,4.2,3.4,7.6,7.6,7.6c4.2,0,7.6-3.4,7.6-7.6
			C118.8,94.8,115.4,91.4,111.2,91.4z"/>
	</g>
	<g id="XMLID_51_">
		<circle class="st1" cx="157.6" cy="99.2" r="7.9"/>
		<path class="st2" d="M157.6,107.5c-4.6,0-8.3-3.7-8.3-8.3s3.7-8.3,8.3-8.3c4.6,0,8.3,3.7,8.3,8.3S162.2,107.5,157.6,107.5z
			 M157.6,91.6c-4.2,0-7.6,3.4-7.6,7.6c0,4.2,3.4,7.6,7.6,7.6s7.6-3.4,7.6-7.6C165.2,95,161.8,91.6,157.6,91.6z"/>
	</g>
	<g id="XMLID_50_">
		<circle class="st1" cx="107" cy="87.4" r="9.3"/>
		<path class="st2" d="M107,97.1c-5.3,0-9.7-4.3-9.7-9.7c0-5.3,4.3-9.7,9.7-9.7c5.3,0,9.7,4.3,9.7,9.7
			C116.7,92.7,112.4,97.1,107,97.1z M107,78.5c-4.9,0-8.9,4-8.9,8.9c0,4.9,4,8.9,8.9,8.9c4.9,0,8.9-4,8.9-8.9
			C116,82.5,112,78.5,107,78.5z"/>
	</g>
	<g id="XMLID_49_">
		<circle class="st1" cx="107.9" cy="91.7" r="7.9"/>
		<path class="st2" d="M107.9,100.1c-4.6,0-8.3-3.7-8.3-8.3s3.7-8.3,8.3-8.3c4.6,0,8.3,3.7,8.3,8.3S112.4,100.1,107.9,100.1z
			 M107.9,84.2c-4.2,0-7.6,3.4-7.6,7.6c0,4.2,3.4,7.6,7.6,7.6c4.2,0,7.6-3.4,7.6-7.6C115.4,87.6,112,84.2,107.9,84.2z"/>
	</g>
	<g id="XMLID_48_">
		<circle class="st1" cx="112.5" cy="74.3" r="7.9"/>
		<path class="st2" d="M112.5,82.6c-4.6,0-8.3-3.7-8.3-8.3c0-4.6,3.7-8.3,8.3-8.3c4.6,0,8.3,3.7,8.3,8.3
			C120.8,78.9,117.1,82.6,112.5,82.6z M112.5,66.8c-4.2,0-7.6,3.4-7.6,7.6c0,4.2,3.4,7.6,7.6,7.6c4.2,0,7.6-3.4,7.6-7.6
			C120.1,70.2,116.7,66.8,112.5,66.8z"/>
	</g>
	<g id="XMLID_47_">
		<circle class="st1" cx="109.4" cy="80.5" r="9.3"/>
		<path class="st2" d="M109.4,90.2c-5.3,0-9.7-4.3-9.7-9.7c0-5.3,4.3-9.7,9.7-9.7c5.3,0,9.7,4.3,9.7,9.7
			C119,85.8,114.7,90.2,109.4,90.2z M109.4,71.6c-4.9,0-8.9,4-8.9,8.9c0,4.9,4,8.9,8.9,8.9c4.9,0,8.9-4,8.9-8.9
			C118.3,75.6,114.3,71.6,109.4,71.6z"/>
	</g>
	<g id="XMLID_46_">
		<circle class="st1" cx="118.7" cy="80.5" r="9.3"/>
		<path class="st2" d="M118.7,90.2c-5.3,0-9.7-4.3-9.7-9.7c0-5.3,4.3-9.7,9.7-9.7c5.3,0,9.7,4.3,9.7,9.7
			C128.3,85.8,124,90.2,118.7,90.2z M118.7,71.6c-4.9,0-8.9,4-8.9,8.9c0,4.9,4,8.9,8.9,8.9c4.9,0,8.9-4,8.9-8.9
			C127.6,75.6,123.6,71.6,118.7,71.6z"/>
	</g>
	<g id="XMLID_45_">
		<circle class="st1" cx="130.9" cy="79.3" r="7.9"/>
		<path class="st2" d="M130.9,87.6c-4.6,0-8.3-3.7-8.3-8.3c0-4.6,3.7-8.3,8.3-8.3c4.6,0,8.3,3.7,8.3,8.3
			C139.2,83.9,135.5,87.6,130.9,87.6z M130.9,71.7c-4.2,0-7.6,3.4-7.6,7.6c0,4.2,3.4,7.6,7.6,7.6c4.2,0,7.6-3.4,7.6-7.6
			C138.5,75.1,135.1,71.7,130.9,71.7z"/>
	</g>
	<g id="XMLID_44_">
		<circle class="st1" cx="137.1" cy="85.5" r="9.3"/>
		<path class="st2" d="M137.1,95.1c-5.3,0-9.7-4.3-9.7-9.7c0-5.3,4.3-9.7,9.7-9.7c5.3,0,9.7,4.3,9.7,9.7
			C146.7,90.8,142.4,95.1,137.1,95.1z M137.1,76.5c-4.9,0-8.9,4-8.9,8.9c0,4.9,4,8.9,8.9,8.9c4.9,0,8.9-4,8.9-8.9
			C146,80.5,142,76.5,137.1,76.5z"/>
	</g>
	<g id="XMLID_43_">
		<circle class="st1" cx="155.8" cy="87" r="9.3"/>
		<path class="st2" d="M155.8,96.6c-5.3,0-9.7-4.3-9.7-9.7c0-5.3,4.3-9.7,9.7-9.7s9.7,4.3,9.7,9.7C165.4,92.3,161.1,96.6,155.8,96.6
			z M155.8,78c-4.9,0-8.9,4-8.9,8.9c0,4.9,4,8.9,8.9,8.9c4.9,0,8.9-4,8.9-8.9C164.7,82,160.7,78,155.8,78z"/>
	</g>
	<g id="XMLID_42_">
		<circle class="st1" cx="133.7" cy="91.7" r="7.9"/>
		<path class="st2" d="M133.7,100.1c-4.6,0-8.3-3.7-8.3-8.3s3.7-8.3,8.3-8.3c4.6,0,8.3,3.7,8.3,8.3S138.3,100.1,133.7,100.1z
			 M133.7,84.2c-4.2,0-7.6,3.4-7.6,7.6c0,4.2,3.4,7.6,7.6,7.6c4.2,0,7.6-3.4,7.6-7.6C141.3,87.6,137.9,84.2,133.7,84.2z"/>
	</g>
	<g id="XMLID_41_">
		<circle class="st1" cx="113.4" cy="91.7" r="7.9"/>
		<path class="st2" d="M113.4,100.1c-4.6,0-8.3-3.7-8.3-8.3s3.7-8.3,8.3-8.3c4.6,0,8.3,3.7,8.3,8.3S118,100.1,113.4,100.1z
			 M113.4,84.2c-4.2,0-7.6,3.4-7.6,7.6c0,4.2,3.4,7.6,7.6,7.6c4.2,0,7.6-3.4,7.6-7.6C121,87.6,117.6,84.2,113.4,84.2z"/>
	</g>
	<g id="XMLID_40_">
		<circle class="st1" cx="126.5" cy="81.2" r="7.9"/>
		<path class="st2" d="M126.5,89.5c-4.6,0-8.3-3.7-8.3-8.3s3.7-8.3,8.3-8.3c4.6,0,8.3,3.7,8.3,8.3S131.1,89.5,126.5,89.5z
			 M126.5,73.6c-4.2,0-7.6,3.4-7.6,7.6c0,4.2,3.4,7.6,7.6,7.6s7.6-3.4,7.6-7.6C134.1,77.1,130.7,73.6,126.5,73.6z"/>
	</g>
	<g id="XMLID_20_">
		<circle class="st1" cx="123.3" cy="87.4" r="9.3"/>
		<path class="st2" d="M123.3,97.1c-5.3,0-9.7-4.3-9.7-9.7c0-5.3,4.3-9.7,9.7-9.7c5.3,0,9.7,4.3,9.7,9.7
			C133,92.7,128.7,97.1,123.3,97.1z M123.3,78.5c-4.9,0-8.9,4-8.9,8.9c0,4.9,4,8.9,8.9,8.9c4.9,0,8.9-4,8.9-8.9
			C132.3,82.5,128.3,78.5,123.3,78.5z"/>
	</g>
	<g id="XMLID_18_">
		<circle class="st1" cx="132.7" cy="87.4" r="9.3"/>
		<path class="st2" d="M132.7,97.1c-5.3,0-9.7-4.3-9.7-9.7c0-5.3,4.3-9.7,9.7-9.7c5.3,0,9.7,4.3,9.7,9.7
			C142.3,92.7,138,97.1,132.7,97.1z M132.7,78.5c-4.9,0-8.9,4-8.9,8.9c0,4.9,4,8.9,8.9,8.9c4.9,0,8.9-4,8.9-8.9
			C141.6,82.5,137.6,78.5,132.7,78.5z"/>
	</g>
	<g id="XMLID_6_">
		<circle class="st1" cx="133.5" cy="91.7" r="7.9"/>
		<path class="st2" d="M133.5,100.1c-4.6,0-8.3-3.7-8.3-8.3s3.7-8.3,8.3-8.3s8.3,3.7,8.3,8.3S138.1,100.1,133.5,100.1z M133.5,84.2
			c-4.2,0-7.6,3.4-7.6,7.6c0,4.2,3.4,7.6,7.6,7.6s7.6-3.4,7.6-7.6C141.1,87.6,137.7,84.2,133.5,84.2z"/>
	</g>
	<g id="XMLID_5_">
		<circle class="st1" cx="139.1" cy="91.7" r="7.9"/>
		<path class="st2" d="M139.1,100.1c-4.6,0-8.3-3.7-8.3-8.3s3.7-8.3,8.3-8.3s8.3,3.7,8.3,8.3S143.7,100.1,139.1,100.1z M139.1,84.2
			c-4.2,0-7.6,3.4-7.6,7.6c0,4.2,3.4,7.6,7.6,7.6s7.6-3.4,7.6-7.6C146.7,87.6,143.3,84.2,139.1,84.2z"/>
	</g>
	<g id="XMLID_4_">
		<circle class="st1" cx="139.3" cy="91.7" r="7.9"/>
		<path class="st2" d="M139.3,100.1c-4.6,0-8.3-3.7-8.3-8.3s3.7-8.3,8.3-8.3c4.6,0,8.3,3.7,8.3,8.3S143.9,100.1,139.3,100.1z
			 M139.3,84.2c-4.2,0-7.6,3.4-7.6,7.6c0,4.2,3.4,7.6,7.6,7.6c4.2,0,7.6-3.4,7.6-7.6C146.9,87.6,143.5,84.2,139.3,84.2z"/>
	</g>
	<g id="XMLID_3_">
		<circle class="st1" cx="161.1" cy="91.7" r="7.9"/>
		<path class="st2" d="M161.1,100.1c-4.6,0-8.3-3.7-8.3-8.3s3.7-8.3,8.3-8.3s8.3,3.7,8.3,8.3S165.7,100.1,161.1,100.1z M161.1,84.2
			c-4.2,0-7.6,3.4-7.6,7.6c0,4.2,3.4,7.6,7.6,7.6s7.6-3.4,7.6-7.6C168.7,87.6,165.3,84.2,161.1,84.2z"/>
	</g>
	<g id="XMLID_2_">
		<circle class="st1" cx="151.1" cy="86.2" r="9.3"/>
		<path class="st2" d="M151.1,95.8c-5.3,0-9.7-4.3-9.7-9.7c0-5.3,4.3-9.7,9.7-9.7c5.3,0,9.7,4.3,9.7,9.7
			C160.7,91.5,156.4,95.8,151.1,95.8z M151.1,77.2c-4.9,0-8.9,4-8.9,8.9c0,4.9,4,8.9,8.9,8.9c4.9,0,8.9-4,8.9-8.9
			C160,81.2,156,77.2,151.1,77.2z"/>
	</g>
	<g id="XMLID_177_">
		<circle class="st1" cx="182.8" cy="132.7" r="9.3"/>
		<path class="st2" d="M182.8,142.4c-5.3,0-9.7-4.3-9.7-9.7s4.3-9.7,9.7-9.7s9.7,4.3,9.7,9.7S188.1,142.4,182.8,142.4z M182.8,123.8
			c-4.9,0-8.9,4-8.9,8.9c0,4.9,4,8.9,8.9,8.9s8.9-4,8.9-8.9C191.7,127.8,187.7,123.8,182.8,123.8z"/>
	</g>
	<g id="XMLID_176_">
		<circle class="st1" cx="192.1" cy="132.7" r="9.3"/>
		<path class="st2" d="M192.1,142.4c-5.3,0-9.7-4.3-9.7-9.7s4.3-9.7,9.7-9.7s9.7,4.3,9.7,9.7S197.4,142.4,192.1,142.4z M192.1,123.8
			c-4.9,0-8.9,4-8.9,8.9c0,4.9,4,8.9,8.9,8.9c4.9,0,8.9-4,8.9-8.9C201,127.8,197,123.8,192.1,123.8z"/>
	</g>
	<g id="XMLID_175_">
		<circle class="st1" cx="209.4" cy="137.5" r="8.5"/>
		<path class="st2" d="M209.4,146.1c-4.8,0-8.7-3.9-8.7-8.7c0-4.8,3.9-8.7,8.7-8.7c4.8,0,8.7,3.9,8.7,8.7
			C218.1,142.2,214.2,146.1,209.4,146.1z M209.4,129.1c-4.6,0-8.3,3.7-8.3,8.3c0,4.6,3.7,8.3,8.3,8.3c4.6,0,8.3-3.7,8.3-8.3
			C217.7,132.9,214,129.1,209.4,129.1z"/>
	</g>
	<path id="XMLID_159_" class="st3" d="M229,215.4c0-30.1-12.3-57.3-32.1-77H44c-19.8,19.7-32.1,46.9-32.1,77
		c0,40.7,22.4,76.1,55.5,94.7h106C206.6,291.5,229,256.1,229,215.4z"/>
	<path id="XMLID_160_" class="st4" d="M41.8,233c-3.8-16.8-2.9-33.3,1.9-47.8c-11.9,15.5-17,36.6-12.1,57.9
		c7.9,34.6,39.1,57.3,71.6,53.3C74.9,292.1,49.6,267.3,41.8,233z"/>
	<path id="XMLID_157_" class="st5" d="M7,147.2c0,7.2,5.9,13.1,13.1,13.1h200.9c7.2,0,13.1-5.9,13.1-13.1v0L7,147.2L7,147.2z"/>
	<path id="XMLID_158_" class="st3" d="M220.9,134.2H20C12.8,134.2,7,140,7,147.2h227C234,140,228.1,134.2,220.9,134.2z"/>
	<g>
		<polygon id="XMLID_1_" class="st6" points="182.7,102.4 185.1,102.7 183.2,101.2 195.4,99.7 183.2,98.2 185.1,96.7 182.7,97 
			190.3,87.4 180.6,95 180.9,92.6 179.4,94.5 178,82.3 176.5,94.5 175,92.6 175.3,95 165.6,87.4 173.2,97 170.8,96.7 172.7,98.2 
			160.5,99.7 172.7,101.2 170.8,102.7 173.2,102.4 165.6,112 175.3,104.4 175,106.8 176.5,104.9 178,117.1 179.4,104.9 180.9,106.8 
			180.6,104.4 190.3,112 		"/>
	</g>
	<g>
		<polygon id="XMLID_55_" class="st6" points="80.1,99.9 81.8,100.1 80.4,99 89.3,98 80.4,96.9 81.8,95.8 80.1,96 85.6,89 
			78.6,94.5 78.8,92.8 77.7,94.1 76.6,85.3 75.6,94.1 74.5,92.8 74.7,94.5 67.6,89 73.2,96 71.4,95.8 72.8,96.9 63.9,98 72.8,99 
			71.4,100.1 73.2,99.9 67.6,106.9 74.7,101.4 74.5,103.1 75.6,101.8 76.6,110.6 77.7,101.8 78.8,103.1 78.6,101.4 85.6,106.9 		"/>
	</g>
</g>
</svg>
