<?xml version="1.0" encoding="utf-8"?>
<!-- Generator: Adobe Illustrator 21.0.2, SVG Export Plug-In . SVG Version: 6.00 Build 0)  -->
<svg version="1.1" id="Слой_1" xmlns="http://www.w3.org/2000/svg" xmlns:xlink="http://www.w3.org/1999/xlink" x="0px" y="0px"
	 viewBox="0 0 240 330" style="enable-background:new 0 0 240 330;" xml:space="preserve">
<style type="text/css">
	.st0{opacity:0.1;}
	.st1{fill:#70712F;}
	.st2{fill:#754C28;}
	.st3{fill:#F5CBA2;}
	.st4{fill:#1F2325;}
	.st5{fill:#858935;}
	.st6{fill:#819D3D;}
	.st7{fill:#FFFFFF;}
	.st8{fill:#B95A27;}
	.st9{fill:#F6DCC5;}
	.st10{fill:#F39E70;}
	.st11{fill:#231F20;}
	.st12{fill:#A84826;}
	.st13{fill:url(#XMLID_56_);}
	.st14{fill:#428B41;}
	.st15{fill:#D8D43E;}
	.st16{fill:#603813;}
	.st17{fill:#C5D936;}
	.st18{fill:url(#XMLID_57_);}
	.st19{fill:#754C28;stroke:#8BC53F;stroke-miterlimit:10;}
	.st20{fill:none;}
	.st21{fill:none;stroke:#D7B328;stroke-width:2;stroke-miterlimit:10;}
</style>
<ellipse class="st0" cx="120.3" cy="275.2" rx="60" ry="9.1"/>
<path id="XMLID_44_" class="st1" d="M88,186.1c0-12.7,8.7-22.9,19.5-22.9v-11.8c-16.3,0-29.6,15.6-29.6,34.7
	c0,19.2,13.2,34.7,29.6,34.7V209C96.7,209,88,198.7,88,186.1z"/>
<path id="XMLID_18_" class="st1" d="M158.1,186.1c0-12.7-8.7-22.9-19.5-22.9v-11.8c16.3,0,29.6,15.6,29.6,34.7
	c0,19.2-13.2,34.7-29.6,34.7V209C149.3,209,158.1,198.7,158.1,186.1z"/>
<polygon id="XMLID_31_" class="st2" points="101.3,226.4 106,264.1 115.8,264.1 115.8,226.4 "/>
<rect id="XMLID_30_" x="109.2" y="264.1" class="st3" width="7.1" height="4.1"/>
<polygon id="XMLID_29_" class="st2" points="143.8,226.4 139.1,264.1 129.3,264.1 129.3,226.4 "/>
<rect id="XMLID_28_" x="130.8" y="264.1" transform="matrix(-1 -4.417456e-11 4.417456e-11 -1 268.7039 532.2372)" class="st3" width="7.1" height="4.1"/>
<path id="XMLID_27_" class="st4" d="M95.7,268.3c-4.9,0-8.9,3.9-8.9,8.8h29v-8.8H95.7z"/>
<path id="XMLID_26_" class="st4" d="M149.4,268.3c4.9,0,8.9,3.9,8.9,8.8h-29v-8.8H149.4z"/>
<path id="XMLID_34_" class="st5" d="M148.9,159.5V142h-18.1v2.3c0,1.3-3.5,2.4-7.8,2.4c-4.3,0-7.8-1.1-7.8-2.4V142H97.3v17.5h0
	c0,0-10.1,35.1-5,44.4c8.7,15.7,50.8,14.3,60.9,0C159.1,195.5,148.9,159.5,148.9,159.5z"/>
<polygon id="XMLID_3_" class="st6" points="95.1,140.7 150.8,140.7 122.9,196.6 "/>
<polygon id="XMLID_16_" class="st7" points="106,140.7 141.3,140.7 123.7,188 "/>
<path id="XMLID_5_" class="st8" d="M82.7,122.7c0-28.7,18-52,40.2-52s40.2,23.3,40.2,52s-40.2,55.9-40.2,55.9S82.7,151.4,82.7,122.7
	z"/>
<polygon id="XMLID_39_" class="st5" points="129.3,227.7 155.8,227.7 154.1,213.9 91.2,213.9 89.2,227.7 115.6,227.7 122.5,222.3 
	"/>
<path id="XMLID_19_" class="st3" d="M81.1,107.6"/>
<path id="XMLID_38_" class="st9" d="M152,113.9c-0.1-2.6-0.1-5.2-0.2-7.8c-0.1-2.1-0.2-4.1-0.3-6.2c-1.7-1.9-1.8-4.2-1.3-6.2
	c-19.5-0.1-38.9-0.3-58.4-0.3l0.1,37.1c1.5,12.9,15.5,0.7,31,0.7c15.5,0,27,12,28.7-0.7c0-0.3,0.1-6.1,0.1-13.3l0.2-3.1
	c-0.2,0-0.3,0.1-0.5,0.1C151.7,114.1,151.8,114,152,113.9z"/>
<circle id="XMLID_47_" class="st3" cx="106.2" cy="114.9" r="3.3"/>
<circle id="XMLID_49_" class="st3" cx="140" cy="114.9" r="3.3"/>
<polygon id="XMLID_50_" class="st3" points="135.5,102.7 146.9,102 148.2,106 131.1,106 "/>
<ellipse id="XMLID_51_" class="st3" cx="123" cy="119.5" rx="3.4" ry="5.6"/>
<polygon id="XMLID_52_" class="st3" points="97.6,101 108.7,103.3 112.7,107.2 95.8,104.7 "/>
<ellipse id="XMLID_53_" class="st10" cx="123" cy="119.5" rx="3.4" ry="5.6"/>
<path id="XMLID_60_" class="st11" d="M140,111.6c-1.8,0-3.3,1.5-3.3,3.3c0,1.8,1.5,3.3,3.3,3.3c1.8,0,3.3-1.5,3.3-3.3
	C143.3,113.1,141.8,111.6,140,111.6z M140,114.7c-0.8,0-1.4-0.6-1.4-1.4c0-0.8,0.6-1.4,1.4-1.4c0.8,0,1.4,0.6,1.4,1.4
	C141.4,114.1,140.8,114.7,140,114.7z"/>
<circle id="XMLID_61_" class="st7" cx="140" cy="113.3" r="1.4"/>
<path id="XMLID_64_" class="st11" d="M106.2,111.6c-1.8,0-3.3,1.5-3.3,3.3c0,1.8,1.5,3.3,3.3,3.3c1.8,0,3.3-1.5,3.3-3.3
	C109.5,113.1,108,111.6,106.2,111.6z M106.2,114.7c-0.8,0-1.4-0.6-1.4-1.4c0-0.8,0.6-1.4,1.4-1.4s1.4,0.6,1.4,1.4
	C107.6,114.1,107,114.7,106.2,114.7z"/>
<circle id="XMLID_65_" class="st7" cx="106.2" cy="113.3" r="1.4"/>
<polygon id="XMLID_66_" class="st12" points="108.7,103.3 97.6,101 95.8,104.7 112.7,107.2 "/>
<polygon id="XMLID_67_" class="st12" points="146.9,102 135.5,102.7 131.1,106 148.2,106 "/>
<linearGradient id="XMLID_56_" gradientUnits="userSpaceOnUse" x1="94.8614" y1="62.0341" x2="152.8018" y2="62.0341">
	<stop  offset="0" style="stop-color:#009345"/>
	<stop  offset="1" style="stop-color:#006838"/>
</linearGradient>
<path id="XMLID_14_" class="st13" d="M152.8,76l-5.1-30.8l-48.9,1.4l-4,29.5C113.5,79.9,134.2,79.9,152.8,76z"/>
<path id="XMLID_15_" class="st14" d="M93.6,86.9l-0.4,4l61.5-1.1l-0.4-2.9C134.6,91.2,113.3,91.2,93.6,86.9z"/>
<g id="XMLID_4_">
	<rect id="XMLID_32_" x="139.4" y="125.1" class="st10" width="1.7" height="1.7"/>
	<rect id="XMLID_10_" x="136.1" y="126.8" class="st10" width="1.7" height="1.7"/>
	<rect id="XMLID_22_" x="140.3" y="129.6" class="st10" width="1.7" height="1.7"/>
</g>
<g id="XMLID_25_">
	
		<rect id="XMLID_37_" x="101.6" y="125.1" transform="matrix(-1 -4.557078e-11 4.557078e-11 -1 204.8301 251.959)" class="st10" width="1.7" height="1.7"/>
	
		<rect id="XMLID_36_" x="104.9" y="126.8" transform="matrix(-1 -4.557078e-11 4.557078e-11 -1 211.5414 255.3119)" class="st10" width="1.7" height="1.7"/>
	
		<rect id="XMLID_33_" x="100.7" y="129.6" transform="matrix(-1 -4.502810e-11 4.502810e-11 -1 203.1536 260.8372)" class="st10" width="1.7" height="1.7"/>
</g>
<path id="XMLID_75_" class="st15" d="M137.4,66.4c0,0.1-0.1,0.1-0.1,0.1c-0.5,0.7-1,1.4-1.4,2.2c-0.5,0.9-0.8,1.8-1.2,2.7
	c-0.3,0.8-0.7,1.6-1.1,2.4c-0.3,0.5-0.6,1-1.1,1.5c-0.4,0.4-0.9,0.7-1.5,0.8c-0.3,0.1-0.7,0.1-1,0c-0.6-0.1-1.1-0.2-1.6-0.5
	c-0.6-0.3-1.1-0.8-1.4-1.5c-0.2-0.5-0.3-1-0.2-1.5c0-0.7,0.2-1.4,0.5-2.1c0,0,0-0.1,0-0.1c-0.1,0-0.2,0.1-0.3,0.1
	c-0.7,0.2-1.3,0-1.8-0.4c-0.5-0.4-0.8-1-1-1.6c-0.3-1-0.2-1.9,0.4-2.8c0.4-0.6,1-1,1.6-1.3c0.6-0.3,1.1-0.4,1.8-0.5
	c0.5-0.1,1-0.1,1.5-0.1c0.6,0,1.3,0.1,1.9,0.1c2,0.3,4,0.8,5.9,1.5c0,0,0.1,0,0.2,0c0,0-0.1-0.1-0.1-0.1c-0.7-0.5-1.4-0.8-2.1-1.2
	c-0.9-0.4-1.9-0.7-2.9-1c-0.9-0.3-1.8-0.5-2.7-0.9c-0.5-0.2-1-0.5-1.4-0.8c-1-0.6-1.6-1.5-1.8-2.7c-0.1-0.5-0.2-1-0.2-1.5
	c0-0.3,0-0.5,0.1-0.8c0.2-0.7,0.6-1.1,1.2-1.4c0.4-0.2,0.8-0.3,1.3-0.3c0.8-0.1,1.6,0,2.4,0.2c0,0,0-0.1-0.1-0.1
	c-0.5-0.9-0.4-1.9,0.2-2.7c0.6-0.7,1.3-1,2.1-1.2c1.3-0.2,2.4,0.3,3.3,1.3c0.5,0.6,0.9,1.3,1.2,2.1c0.3,0.8,0.4,1.5,0.5,2.3
	c0.2,1.2,0.2,2.5,0.1,3.7c0,1-0.1,1.9-0.3,2.8c-0.1,0.6-0.2,1.2-0.3,1.8c0,0,0,0.1,0,0.1c0.1-0.1,0.1-0.3,0.2-0.4
	c0.2-0.7,0.4-1.4,0.5-2.1c0.1-1,0.2-2,0.2-3c0-0.9,0.1-1.9,0.1-2.8c0-0.8,0.2-1.7,0.4-2.5c0.2-0.5,0.4-0.9,0.7-1.3
	c0.5-0.5,1-0.8,1.7-1c0.4-0.1,0.8-0.2,1.2-0.2c0.8,0,1.5,0.1,2.2,0.6c0.5,0.4,0.8,0.9,1,1.4c0.2,0.5,0.3,1.1,0.4,1.7
	c0,0.3,0,0.6,0,0.9c0,0,0,0.1,0,0.1c0,0,0.1-0.1,0.1-0.1c0.6-0.6,1.3-0.7,2.1-0.4c0.7,0.2,1.3,0.7,1.7,1.3c0.5,0.6,0.7,1.4,0.8,2.1
	c0,0.7-0.2,1.4-0.6,2c-0.4,0.6-0.9,1.1-1.5,1.5c-0.8,0.5-1.6,0.9-2.5,1.3c-1,0.4-2.1,0.6-3.2,0.8c-0.7,0.1-1.4,0.2-2.1,0.3
	c-0.5,0.1-1.1,0.1-1.6,0.1c-0.4,0-0.8,0.1-1.3,0.1c0.2,0,0.4,0.1,0.5,0.1c0.8,0.1,1.7,0.2,2.5,0.1c0.6,0,1.3-0.1,1.9-0.1
	c0.5,0,1.1-0.1,1.6-0.1c0.6,0,1.2-0.1,1.9-0.1c0.6,0,1.3,0.1,1.9,0.3c0.9,0.3,1.5,0.9,1.8,1.7c0.2,0.6,0.4,1.3,0.4,1.9
	c0,0.9-0.4,1.7-1.1,2.3c-0.5,0.4-1.1,0.6-1.7,0.7c-0.3,0.1-0.7,0.2-1.1,0.2c-0.1,0-0.1,0-0.2,0c0,0,0.1,0.1,0.1,0.1
	c0.6,0.5,0.7,1.1,0.6,1.8c-0.2,0.9-0.6,1.5-1.3,2c-0.7,0.5-1.4,0.7-2.3,0.7c-0.5,0-1-0.2-1.5-0.5c-0.6-0.4-1.2-0.9-1.6-1.5
	c-0.6-0.8-1.1-1.7-1.5-2.7c-0.5-1.3-0.9-2.7-1.2-4.1c-0.1-0.7-0.3-1.3-0.4-2c0,0,0-0.1-0.1-0.1c0,0.2-0.1,0.3-0.1,0.5
	c-0.3,1.1-0.5,2.3-0.7,3.4c-0.2,1.2-0.2,2.4-0.2,3.6c0,2.8,0.5,5.4,1.6,8c0.8,2,1.9,3.8,3.4,5.4c0.3,0.3,0.7,0.6,1,1
	c0,0,0.1,0.1,0.1,0.1c0.1,0.1,0,0.2,0,0.3c-0.1,0.1-0.2,0.1-0.3,0.1c-0.1,0-0.1-0.1-0.2-0.1c-0.8-0.7-1.5-1.5-2.1-2.4
	c-1.6-2.2-2.7-4.7-3.3-7.3c-0.2-0.9-0.4-1.9-0.5-2.9c-0.1-1.1-0.1-2.1-0.1-3.2c0.1-2.1,0.4-4.3,1-6.3
	C137.4,66.5,137.4,66.5,137.4,66.4C137.4,66.4,137.4,66.4,137.4,66.4z"/>
<path id="XMLID_35_" class="st16" d="M94.9,75.3l-1.3,11.6c19.7,4.3,41,4.3,60.7,0l-1.5-11.6C134.2,80.1,113.5,80.1,94.9,75.3z"/>
<path id="XMLID_11_" class="st17" d="M127.7,92.6h-9.2c-0.8,0-1.4-0.6-1.4-1.4v-8.5c0-0.8,0.6-1.4,1.4-1.4h9.2
	c0.8,0,1.4,0.6,1.4,1.4v8.5C129.1,91.9,128.5,92.6,127.7,92.6z"/>
<linearGradient id="XMLID_57_" gradientUnits="userSpaceOnUse" x1="173.5692" y1="92.09" x2="74.1093" y2="92.09">
	<stop  offset="0" style="stop-color:#009345"/>
	<stop  offset="1" style="stop-color:#006838"/>
</linearGradient>
<path id="XMLID_8_" class="st18" d="M167.5,94.1c-27.4,9.2-59.9,9.2-87.3,0c-5.5-1.8-7.6-5.8-4.9-8.4l0,0c2.7-2.6,8.2-3.1,12.6-1.7
	c22.6,7.6,49.4,7.6,72.1,0c4.4-1.5,9.9-0.9,12.6,1.7l0,0C175.1,88.2,173,92.2,167.5,94.1z"/>
<polygon id="XMLID_40_" class="st7" points="128.8,84 129.9,84.1 129,83.4 134.8,82.7 129,82 129.9,81.3 128.8,81.4 132.4,76.8 
	127.8,80.5 128,79.3 127.2,80.2 126.5,74.4 125.8,80.2 125.1,79.3 125.3,80.4 120.7,76.8 124.3,81.4 123.2,81.3 124.1,82 
	118.3,82.7 124.1,83.4 123.2,84.1 124.3,84 120.7,88.6 125.3,85 125.1,86.1 125.8,85.2 126.5,91 127.2,85.2 128,86.1 127.8,85 
	132.4,88.6 "/>
<polygon id="XMLID_17_" class="st2" points="92.3,203.9 91.2,213.9 154.1,213.9 153.2,203.9 "/>
<path id="XMLID_46_" class="st17" d="M126.6,201.3h-4.3c-3.2,0-5.8,2.6-5.8,5.8v3.6c0,3.2,2.6,5.8,5.8,5.8h4.3
	c3.2,0,5.8-2.6,5.8-5.8v-3.6C132.3,203.9,129.8,201.3,126.6,201.3z M129.3,210.6c0,1.5-1.2,2.7-2.7,2.7h-4.3c-1.5,0-2.7-1.2-2.7-2.7
	v-1.3h3.3v-1.8h-3.3v-0.5c0-1.5,1.2-2.7,2.7-2.7h4.3c1.5,0,2.7,1.2,2.7,2.7V210.6z"/>
<circle id="XMLID_2_" class="st19" cx="111.8" cy="208.9" r="1.2"/>
<circle id="XMLID_41_" class="st19" cx="106.7" cy="208.9" r="1.2"/>
<circle id="XMLID_43_" class="st19" cx="101.3" cy="208.9" r="1.2"/>
<path id="XMLID_68_" class="st7" d="M123.8,144.2c-1.1,0-10.7-3.6-11.7,0c-1,3.4,4.7,9.3,10.9,9.8c6.7,0.4,13.4-5.6,12.6-9.2
	C134.9,141.3,128.6,144,123.8,144.2z"/>
<polygon id="XMLID_135_" class="st7" points="129.6,204.8 130.4,204.9 129.7,204.4 134.2,203.9 129.7,203.3 130.4,202.8 
	129.6,202.9 132.3,199.3 128.8,202.1 128.9,201.2 128.4,201.9 127.8,197.5 127.3,201.9 126.7,201.2 126.8,202.1 123.3,199.3 
	126.1,202.9 125.2,202.8 125.9,203.3 121.4,203.9 125.9,204.4 125.2,204.9 126.1,204.8 123.3,208.4 126.8,205.6 126.7,206.5 
	127.3,205.8 127.8,210.3 128.4,205.8 128.9,206.5 128.8,205.6 132.3,208.4 "/>
<path id="XMLID_137_" class="st20" d="M91.2,148.2c1.9,0,3.9,0,5.8,0c0-0.1,0-0.2,0-0.3c-1.9,0-3.9,0-5.8,0
	C91.2,148,91.2,148.1,91.2,148.2z"/>
<path id="XMLID_1_" class="st9" d="M147.9,113.9c0.9-11.1,16.2-16,16.2-16s-5.7,29-11.6,28.5C149.5,126.1,147.4,119.1,147.9,113.9z"
	/>
<path id="XMLID_7_" class="st9" d="M97.9,113.9c-0.9-11.1-16.2-16-16.2-16s5.7,29,11.6,28.5C96.2,126.1,98.3,119.1,97.9,113.9z"/>
<g id="XMLID_6_">
	<g id="XMLID_9_">
		<path id="XMLID_12_" class="st10" d="M87.9,111.1c-0.1-0.3-2.1-6.9-2.1-7.3l0-0.1l0.1-0.1c0.1-0.1,0.2-0.1,6.3,6.3l-0.2,0.2
			c-2-2.1-5-5.3-5.9-6c0.4,1.4,2,6.9,2.1,7L87.9,111.1z"/>
		<path id="XMLID_20_" class="st10" d="M87.7,111.5l-0.1-0.3c0-0.1-2.1-6.9-2.2-7.3l-0.1-0.3l0.2-0.1l-0.1-0.4l0.3,0.3
			c0.4-0.1,1.1,0.6,6.6,6.4l0.2,0.2l-0.6,0.6l-0.2-0.2c-1.7-1.8-3.8-3.9-5-5.2c0.5,1.8,1.4,4.8,1.7,5.6l0.1,0.5L87.7,111.5z"/>
	</g>
</g>
<g id="XMLID_23_">
	<g id="XMLID_24_">
		<path id="XMLID_48_" class="st10" d="M157.4,111.1c0.1-0.3,2.1-6.9,2.1-7.3l0-0.1l-0.1-0.1c-0.1-0.1-0.2-0.1-6.3,6.3l0.2,0.2
			c2-2.1,5-5.3,5.9-6c-0.4,1.4-2,6.9-2.1,7L157.4,111.1z"/>
		<path id="XMLID_42_" class="st10" d="M157.6,111.5l0.1-0.3c0-0.1,2.1-6.9,2.2-7.3l0.1-0.3l-0.2-0.1l0.1-0.4l-0.3,0.3
			c-0.4-0.1-1.1,0.6-6.6,6.4l-0.2,0.2l0.6,0.6l0.2-0.2c1.7-1.8,3.8-3.9,5-5.2c-0.5,1.8-1.4,4.8-1.7,5.6l-0.1,0.5L157.6,111.5z"/>
	</g>
</g>
<circle id="XMLID_21_" class="st21" cx="107.5" cy="114.9" r="10.2"/>
<circle id="XMLID_55_" class="st21" cx="140.3" cy="114.9" r="10.2"/>
</svg>
