<?xml version="1.0" encoding="utf-8"?>
<!-- Generator: Adobe Illustrator 21.0.2, SVG Export Plug-In . SVG Version: 6.00 Build 0)  -->
<svg version="1.1" id="Слой_1" xmlns="http://www.w3.org/2000/svg" xmlns:xlink="http://www.w3.org/1999/xlink" x="0px" y="0px"
	 viewBox="0 0 128 128" style="enable-background:new 0 0 128 128;" xml:space="preserve">
<style type="text/css">
	.st0{clip-path:url(#SVGID_2_);}
	.st1{clip-path:url(#SVGID_4_);fill:#518E29;}
	.st2{clip-path:url(#SVGID_4_);fill:#34750A;}
	.st3{clip-path:url(#SVGID_4_);fill:#E2E2E2;}
	.st4{clip-path:url(#SVGID_4_);fill:#BFBFBF;}
	.st5{clip-path:url(#SVGID_4_);fill:#BF212C;}
	.st6{clip-path:url(#SVGID_4_);fill:#D3404E;}
	.st7{clip-path:url(#SVGID_4_);fill:#FFFFFF;}
</style>
<g>
	<g>
		<defs>
			<rect id="SVGID_1_" x="5.2" y="12.7" width="116.8" height="101.9"/>
		</defs>
		<clipPath id="SVGID_2_">
			<use xlink:href="#SVGID_1_"  style="overflow:visible;"/>
		</clipPath>
		<g class="st0">
			<defs>
				<rect id="SVGID_3_" x="5.2" y="12.7" width="116.8" height="101.9"/>
			</defs>
			<clipPath id="SVGID_4_">
				<use xlink:href="#SVGID_3_"  style="overflow:visible;"/>
			</clipPath>
			<path class="st1" d="M95.7,85.1c1,0.2,2,0.4,3.1,0.7c4.2,1.1,8.4,2.4,12.6,3.5c3,0.8,7.6,0.9,9.6,3.5c1.7,2,0.9,4.8-0.9,6.4
				c-2.9,2.7-7.1,3.2-10.8,3.7c-4.9,0.7-9.8,1.1-14.6,2.6c-7.9,2.5-15.2,6.2-23.5,7.2c-4.1,0.5-8.3,0.2-12.5,0.6
				c-3.9,0.3-7.7,0.8-11.5,0.1c-3.6-0.6-7.2-1.1-10.9-0.9c-3.4,0.2-6.4,1.5-9.6,1.9c-4.3,0.5-9.3-5.4-10.1-9.2
				c-1.4-6.8,7.7-7.2,11.8-10.3c1.4-1.1,2.5-2.6,3.9-3.7c1.5-1.2,3.2-2.2,4.6-3.5c1.5-1.4,3.3-2.6,5.2-3.3c5-2,10.3-3.5,15.6-4.7
				C64.8,78,74.9,76,81,81.4c2.4,2.2,4.9,2.8,8.2,3C91.6,84.6,93.6,84.8,95.7,85.1"/>
			<path class="st2" d="M79.3,85.2c3.2-0.2,6.2,1.4,9.3,1.5c3,0.2,6,1.2,8.7,2.4c1.3,0.6,5.5,1.5,5.9,3c0.8,2.8-10.2,5.4-12.1,5.9
				c-3.2,0.9-5.9,2.4-9,3.5c-3.8,1.3-7.6,2.2-11.3,3.7c-4.8,1.9-10,3.6-15.1,4.5c-4.5,0.8-8.6,0.3-13-0.3
				c-4.6-0.6-13.1,0.4-15.6-4.7c-1.2-2.5,0.5-2.9,2.6-3.8c3.3-1.5,6.4-3.4,9.6-5.1c8.9-4.5,19-7.1,28.7-8.8
				C71.6,86.4,75.6,85.4,79.3,85.2"/>
			<path class="st3" d="M74.8,98.9c-8.4,6.6-30,11.2-37.2,0.1c-3.4-5.3-2.2-11.7-0.8-17.8c0.4-1.9,0.8-3.8,1.1-5.6
				c1.1-7,1.7-14.5,1.6-21.6c0-2.8-0.6-5.5-0.5-7.8c0.1-1.5,0.4-2.9,1.3-4c0.6-0.7,1.4-1.4,2.5-1.9c0.5-0.2,1-0.4,1.6-0.7
				c4.7-1.6,8.7,0.4,12.3,3.3c4.1,3.2,7.3,7.5,10.2,11.9c2.4,3.6,4.7,7.3,7.2,10.6c4.2,5.6,7.6,11,8.5,16.3
				C83.8,87.6,81.9,93.3,74.8,98.9"/>
			<path class="st4" d="M82.8,81.7C82.8,81.7,82.7,81.7,82.8,81.7c-1.8,0.5-2,5.9-2.8,7.1c-5.5,8.5-22.1,12.8-29.6,4.6
				c-4.4-4.8-4.9-12.2-5-19v0c2.8-7.6,10-13.4,16.8-17.1c1.4-0.8,3.2-1.6,4.9-2.6c-2.9-4.4-6.1-8.7-10.2-11.9
				c-3.7-2.8-7.7-4.9-12.3-3.3c-0.6,0.2-1.1,0.4-1.6,0.7c-0.6,0.7-1.2,1.5-1.8,2.3c-0.3-0.2-0.5-0.3-0.8-0.3c-1,1.2-1.3,2.5-1.3,4
				c-0.1,2.3,0.5,5,0.5,7.8c0.1,7.1-0.4,14.6-1.6,21.6c-0.3,1.8-0.7,3.7-1.1,5.6c-1.3,6.1-2.6,12.5,0.8,17.8
				c7.2,11.1,28.8,6.5,37.2-0.1C81.9,93.3,83.8,87.6,82.8,81.7"/>
			<path class="st5" d="M90.9,36.8C89,42.4,81,46,76.3,48.7c-10.7,6.1-22.3,11.7-34,15.7c-10,3.5-28.6,11.8-35.7-1.5
				c-4.3-8,2.2-19.9,10.3-29.5c3.3-4,7-7.6,10.2-10.5c2-1.7,3.8-3.1,5.3-4.2c6.8-4.6,15.1-6.3,23.3-6.1c5,0.1,10.1,0.9,14.9,2.2
				c0.2,0.1,0.5,0.1,0.7,0.2C80.3,17.6,94.7,25.2,90.9,36.8"/>
			<path class="st6" d="M66.9,44.8c-7.5,1.9-16.8,1.5-23.8-1.6c-6.5-2.9-8.9-11-6.7-17.4c2.6-7.6,12.8-11.5,20.2-12.2
				c8.2-0.7,16.9,1.8,23.5,6.6c4.9,3.6,9,8.8,5.6,15.1C82.2,41.4,73.1,43.2,66.9,44.8"/>
			<path class="st3" d="M68.8,21.4c-3,2.7-9.5,2.9-12.4,0c-2.2-2.3-2.2-5.8-0.8-8.7c5,0.1,10.1,0.9,14.9,2.2
				c0.2,0.1,0.5,0.1,0.7,0.2C71.4,17.4,70.6,19.8,68.8,21.4"/>
			<path class="st7" d="M72.9,38.3c-4.7-4.9,2.8-15.6,9.2-11.3c3.6,2.4,4.5,8.2,1.2,11.3C80.8,40.6,75.2,40.8,72.9,38.3"/>
			<path class="st7" d="M44.9,53.4c-4.7-4.9,2.8-15.6,9.2-11.3c3.6,2.4,4.5,8.2,1.2,11.3C52.9,55.7,47.3,55.9,44.9,53.4"/>
			<path class="st7" d="M12.9,54.5c-4.7-4.9,2.8-15.6,9.2-11.3c3.6,2.4,4.5,8.2,1.2,11.3C20.8,56.8,15.3,57,12.9,54.5"/>
			<path class="st3" d="M26.9,33.1c-2.4,2.2-7.5,2.5-10.1,0.3c3.3-4,7-7.6,10.2-10.5C29.5,25.8,29.8,30.5,26.9,33.1"/>
			<path class="st3" d="M91.7,89.3c-2.3,3.4-5.8,4.7-9.1-0.1c-1.2-1.9-1.2-4.9-1.1-7.1c0.2-3.6,2-11.2,7.2-9.8
				c1.9,0.5,3.2,1.6,4.1,3C95.2,79.1,94.2,85.5,91.7,89.3"/>
			<path class="st4" d="M91.6,89.2C91.6,89.2,91.6,89.2,91.6,89.2c-2.3,3.5-5.8,4.8-9,0c-1.2-1.9-1.2-4.9-1.1-7.1
				c0.2-3.6,2-11.2,7.2-9.8c1.9,0.5,3.2,1.6,4.1,3c-0.7,0.7-1.9,0.9-2.7,1.3c-1.6,0.7-2.9,1.7-3.6,3.3c-0.9,2-0.3,6.2,1.8,7.6
				C89.6,88.4,90.9,87.2,91.6,89.2"/>
			<path class="st5" d="M84.7,76.2c-2.4,0-7.6,0.3-6.9-2.8c0.7-3.1,4.5-8.4,7.8-9.3c3.1-0.9,6.1,0.2,8.3,2.3
				c1.8,1.7,5.1,5.9,3.2,8.5C95,77.9,87.8,76.2,84.7,76.2"/>
			<path class="st6" d="M88,65.7c3.1-2.1,10,4.2,7.4,7C93.1,75.3,83.8,68.6,88,65.7"/>
			<path class="st1" d="M104.1,87.9c-0.3-1.3-0.9-2.4-1.9-3.5c1.4-0.8,3,0,3.6,1.5c0.4-1.3,1.3-2.4,2.9-2.5
				c-0.4,0.7-0.6,1.5-0.9,2.2c1.1-0.8,2.6-0.4,3.9-0.3c-0.8,0.6-1.5,1.2-2.1,1.9c1.3,0.2,2.9-0.3,3.7-1.4c0,1,0.1,2-0.4,2.9
				c0.7-0.6,1.6-0.6,2.3-1.2c-0.1,0.5,0.1,1.1,0,1.6c0.3-0.4,0.8-0.6,1.1-1c2.1,2.2,1,6.5-2.5,6.2L104.1,87.9z"/>
			<path class="st1" d="M22.9,98.9c-0.7-1.2-2-1.6-3.3-1.6c1.3-0.9,2.3-0.8,3.9-0.9c-0.5-1.1-0.7-2.3-0.3-3.5
				c0.5,0.5,0.8,1.2,1.4,1.7c0.2-1.6,1.5-2.8,2.7-3.7c-0.1,0.9-0.4,1.9-0.1,2.8c0.6-0.7,1.6-2,2.6-2.2c-0.5,2.2,0.6,2.6,1.7,4.5
				L22.9,98.9z"/>
		</g>
	</g>
</g>
</svg>
